<svg xmlns="http://www.w3.org/2000/svg" xmlns:xlink="http://www.w3.org/1999/xlink" id="svg3446" height="512" width="512"><defs id="defs3448"><clipPath id="clipPath7362"><path id="rect7364" fill-opacity=".67" d="M-85.648 0H597.0219999999999V512H-85.648z"/></clipPath></defs><path id="rect3880" fill="#060" d="M0 0H512V512H0z"/><path id="rect3882" fill="#fff" d="M0 0H512V365.714H0z"/><path id="rect3884" fill="#c00" d="M0 0H512V146.286H0z"/><g id="g3886" transform="translate(-256) scale(.73143)" fill="#f8c300"><path d="m 672,340.7 a 12.5,12.5 0 0 1 23.3,5.9 l 0,50 9.4,0 0,-50 a 12.5,12.5 0 0 1 23.3,-5.9 29.5,29.5 0 1 0 -56,0" id="path3888"/><path d="m 678.7,327.65 a 20,20 0 0 1 21.3,9.55 20,20 0 0 1 21.3,-9.55 21.5,21.5 0 0 0 -42.6,0" id="path3890" fill="#fff"/><path id="w" d="m 695.3,376.627 a 38,38 0 0 1 -63.845,24.316 39.5,39.5 0 0 1 -59.734,17.467 c 3.6496,36.426 58.252,28.989 62.32,-6.4288 17.154,30.115 54.873,21.49 65.91,-15.4 z"/><use height="100%" width="100%" xlink:href="#w" transform="matrix(-1 0 0 1 1400 0)" id="use3893"/><path id="r" d="m 658.84,441.31 c -7.6181,16.446 -22.845,19.271 -36.164,5.9953 0,0 5.3539,-3.7831 11.086,-4.826 -1.0748,-4.5744 1.1291,-10.902 4.2354,-14.324 3.2575,2.2264 7.8036,6.6886 8.9598,11.874 8.0291,-1.0394 11.883,1.2815 11.883,1.2815 z"/><use height="100%" width="100%" xlink:href="#r" transform="rotate(9.37 700 804)" id="use3896"/><use height="100%" width="100%" xlink:href="#r" transform="rotate(18.74 700 804)" id="use3898"/><path d="m 603,478 a 340,340 0 0 1 194,0" id="path3900" fill="none" stroke="#f8c300" stroke-width="16"/><g transform="translate(700 380)" id="g3902"><g transform="translate(0 -140)" id="g3904"><path id="s" transform="scale(.00005)" d="M488533 -158734L-301930 415571 0 -513674 301930 415571 -488533 -158734z"/></g><g id="h"><use height="100%" width="100%" xlink:href="#s" transform="translate(-70 -121.244)" id="use3908"/><use height="100%" width="100%" xlink:href="#s" transform="translate(-121.244 -70)" id="use3910"/><use height="100%" width="100%" xlink:href="#s" transform="translate(-140)" id="use3912"/></g><use height="100%" width="100%" xlink:href="#h" transform="scale(-1 1)" id="use3914"/></g></g></svg>