<svg width="20" height="16" viewBox="0 0 20 16" fill="none" xmlns="http://www.w3.org/2000/svg">
<path d="M12.9935 1.98099C11.5204 0.773916 9.7133 -0.0854899 7.79002 0.00677999C3.77739 -0.131159 0.0878755 3.47797 0.0207368 7.59977C-0.23616 10.9684 1.92131 14.2728 4.96727 15.464C8.00243 16.6636 11.8925 15.8462 13.8302 13.0461C14.9604 11.4846 15.307 9.52686 15.2701 7.61721C15.3323 7.61788 15.3946 7.61857 15.4569 7.61924C15.7573 7.62252 16.0576 7.62578 16.3572 7.62887C16.3639 8.26026 16.3639 8.89243 16.3698 9.52381H18.1756C18.1772 9.20374 18.1786 8.88346 18.1806 8.56278C18.1825 8.25087 18.1849 7.9386 18.1882 7.62577C18.5238 7.62191 18.8588 7.61924 19.1933 7.61657C19.4624 7.61442 19.7313 7.61226 20 7.6095V5.72075C19.716 5.71782 19.4313 5.71628 19.1464 5.71474C18.8267 5.713 18.5069 5.71126 18.1882 5.70757C18.1817 5.08812 18.1788 4.46569 18.1758 3.84537L18.1756 3.80953H16.3728V3.81571C16.3669 4.44582 16.3609 5.07517 16.3572 5.70757C15.7516 5.71145 15.1489 5.71454 14.5455 5.72075V6.85764C12.2914 6.84379 10.0407 6.84824 7.79002 6.85502C7.78636 7.76383 7.79002 8.67263 7.79362 9.58237C8.69798 9.61248 9.60368 9.61559 10.509 9.6187C11.0893 9.62069 11.6695 9.62269 12.2492 9.63178C11.5948 13.0116 7.11656 14.1078 4.74767 11.9005C2.31157 9.96361 2.42686 5.71691 4.96001 3.91793C6.7299 2.46663 9.24767 2.82549 11.0184 4.08198C11.7137 3.42112 12.3645 2.71457 12.9935 1.98099Z" fill="white"/>
</svg>
