<svg width="18" height="18" viewBox="0 0 18 18" fill="none" xmlns="http://www.w3.org/2000/svg">
<path fill-rule="evenodd" clip-rule="evenodd" d="M12.9374 3.88251C12.9374 4.51376 13.4503 5.02553 14.0829 5.02553C14.7156 5.02553 15.2285 4.51376 15.2285 3.88251C15.2285 3.25122 14.7156 2.73946 14.0829 2.73946C13.4503 2.73946 12.9374 3.25122 12.9374 3.88251ZM5.80487 8.96713C5.80487 7.21355 7.22961 5.79202 8.98706 5.79202C10.7445 5.79202 12.1692 7.21355 12.1692 8.96713C12.1692 10.7207 10.7445 12.1422 8.98706 12.1422C7.22961 12.1422 5.80487 10.7207 5.80487 8.96713ZM8.98705 13.8585C6.27963 13.8585 4.08484 11.6685 4.08484 8.9671C4.08484 6.26568 6.27963 4.07576 8.98705 4.07576C11.6945 4.07576 13.8893 6.26568 13.8893 8.9671C13.8893 11.6685 11.6945 13.8585 8.98705 13.8585ZM16.7368 1.26319C16.3527 0.879044 15.9869 0.641133 15.4745 0.442006C15.0877 0.291639 14.5064 0.112825 13.436 0.0639851C12.2784 0.0111784 11.9312 0 8.99998 0C6.06873 0 5.72152 0.0111784 4.56389 0.0639851C3.49358 0.112825 2.9123 0.291639 2.52547 0.442006C2.01303 0.641133 1.64735 0.879044 1.26319 1.26319C0.879044 1.64735 0.641133 2.01307 0.441966 2.52547C0.291639 2.9123 0.112825 3.49362 0.0639851 4.56393C0.0111784 5.72152 0 6.06873 0 8.99998C0 11.9313 0.0111784 12.2784 0.0639851 13.4361C0.112825 14.5064 0.291639 15.0877 0.441966 15.4745C0.641133 15.9869 0.879044 16.3527 1.26319 16.7368C1.64735 17.121 2.01303 17.3589 2.52547 17.558C2.9123 17.7083 3.49358 17.8872 4.56393 17.936C5.72136 17.9888 6.06853 18 8.99998 18C11.9314 18 12.2786 17.9888 13.436 17.936C14.5064 17.8872 15.0877 17.7083 15.4745 17.558C15.9869 17.3589 16.3527 17.121 16.7368 16.7368C17.1209 16.3527 17.3589 15.9869 17.558 15.4745C17.7083 15.0877 17.8872 14.5064 17.936 13.4361C17.9888 12.2784 18 11.9313 18 8.99998C18 6.06873 17.9888 5.72152 17.936 4.56393C17.8872 3.49362 17.7083 2.9123 17.558 2.52547C17.3589 2.01307 17.1209 1.64735 16.7368 1.26319Z" fill="white"/>
</svg>
