<svg width="12" height="18" viewBox="0 0 12 18" fill="none" xmlns="http://www.w3.org/2000/svg">
<path fill-rule="evenodd" clip-rule="evenodd" d="M10.6747 3.54643C11.334 6.23402 9.28356 8.40268 7.04766 8.87208C1.11327 10.1226 -1.44794 1.83278 4.88415 0.163269C7.78716 -0.600754 10.1582 1.44986 10.6747 3.54643ZM8.27178 3.96178C7.9793 2.94008 6.83141 2.00667 5.39971 2.38327C2.32006 3.18513 3.60503 7.38097 6.60455 6.63046C7.66167 6.36647 8.64544 5.27179 8.27178 3.96178Z" fill="white"/>
<path d="M2.76049 9.63031C4.74926 10.6854 7.35717 10.6637 9.3211 9.5814C9.42529 9.52449 9.52508 9.45837 9.62591 9.39155C9.93267 9.18829 10.2491 8.97858 10.7286 9.00175C11.5856 9.04614 13.3176 10.4128 10.2707 11.8393C9.16106 12.3576 8.75359 12.4354 8.22265 12.5368C7.953 12.5883 7.65148 12.6459 7.20989 12.7703C7.3764 13.0747 8.72411 14.2689 9.69494 15.1291C10.0414 15.4361 10.34 15.7006 10.5196 15.8669C11.6553 16.9175 10.6888 18.1112 9.52416 17.9916C8.7846 17.9146 6.46331 15.6287 6.04229 15.1586C5.62145 15.3543 5.05755 15.907 4.4804 16.4727C3.75939 17.1793 3.01781 17.9061 2.50866 17.9826C1.29821 18.1646 0.288933 16.8858 1.51922 15.7808L4.79009 12.7912C4.6162 12.7054 4.22948 12.6297 3.85259 12.5558C3.58868 12.5041 3.32958 12.4534 3.15166 12.4008C-1.61628 10.9816 0.0828784 8.8804 1.44854 9.00629C1.80724 9.03998 2.13952 9.24914 2.43987 9.43825C2.5512 9.50835 2.6582 9.57568 2.76049 9.63031Z" fill="white"/>
</svg>
