<svg width="20" height="17" viewBox="0 0 20 17" fill="none" xmlns="http://www.w3.org/2000/svg">
<path fill-rule="evenodd" clip-rule="evenodd" d="M10.6537 13.3229C9.88554 14.0803 9.1257 14.8243 8.3724 15.575C8.10902 15.8375 7.81275 15.9824 7.43497 15.9618C7.17768 15.9478 7.03326 15.8321 6.95442 15.584C6.37793 13.7697 5.79203 11.9585 5.21816 10.1434C5.16224 9.96667 5.07803 9.88175 4.90265 9.82742C3.54335 9.40631 2.18676 8.97607 0.831909 8.54054C0.631306 8.47605 0.428197 8.39316 0.254146 8.27615C-0.0487787 8.07257 -0.0920099 7.74886 0.184618 7.51448C0.44022 7.29789 0.743247 7.11654 1.05369 6.99212C2.77128 6.30392 4.49761 5.63801 6.22082 4.96416C10.366 3.34321 14.5114 1.72242 18.6564 0.100693C19.4509 -0.210204 20.0683 0.220967 19.9939 1.08912C19.9449 1.6614 19.7978 2.22622 19.6798 2.7912C18.7613 7.18871 17.8392 11.5854 16.9182 15.9824C16.9164 15.9909 16.9158 15.9996 16.914 16.008C16.6887 17.0139 15.9674 17.2889 15.145 16.6757C13.7172 15.6112 12.293 14.5419 10.8671 13.4749C10.7997 13.4245 10.73 13.3772 10.6537 13.3229ZM7.49876 14.7077C7.52096 14.6045 7.53636 14.5569 7.54086 14.5083C7.63147 13.5194 7.72617 12.5308 7.80639 11.5411C7.82425 11.3214 7.88891 11.1592 8.05662 11.0067C10.2203 9.0389 12.3773 7.06356 14.536 5.09019C15.1501 4.52884 15.7667 3.9703 16.3748 3.40242C16.4387 3.3428 16.4525 3.22823 16.4896 3.13916C16.3957 3.1122 16.2904 3.04388 16.2102 3.06653C16.0248 3.11889 15.838 3.1936 15.6754 3.29718C12.4658 5.34256 9.26039 7.39452 6.05069 9.4397C5.88739 9.54374 5.84078 9.62939 5.90626 9.82872C6.4145 11.3755 6.908 12.9273 7.40682 14.4773C7.42637 14.5381 7.45394 14.5961 7.49876 14.7077Z" fill="white"/>
</svg>
