<svg width="19" height="15" viewBox="0 0 19 15" fill="none" xmlns="http://www.w3.org/2000/svg">
<path fill-rule="evenodd" clip-rule="evenodd" d="M0 13.2984C1.7252 14.3737 3.7734 15 5.9755 15C13.1461 15 17.0667 9.22875 17.0667 4.22437C17.0667 4.06031 17.063 3.89813 17.0553 3.73594C17.8172 3.20156 18.4785 2.535 19 1.77562C18.3018 2.0775 17.5503 2.28 16.7618 2.37C17.5665 1.90406 18.183 1.15969 18.4756 0.276563C17.7222 0.709687 16.8872 1.02469 15.9999 1.19438C15.2893 0.459375 14.2757 0 13.1546 0C11.0019 0 9.25585 1.69406 9.25585 3.78469C9.25585 4.08281 9.291 4.37063 9.3575 4.64813C6.118 4.49063 3.24425 2.98312 1.32335 0.691875C0.988 1.2525 0.79515 1.90125 0.79515 2.59594C0.79515 3.90937 1.48295 5.06906 2.5289 5.74781C1.88955 5.73 1.28915 5.55844 0.76285 5.27437C0.76285 5.29031 0.76285 5.30625 0.76285 5.32219C0.76285 7.15594 2.10805 8.68781 3.8893 9.03563C3.56345 9.12281 3.2186 9.16781 2.8633 9.16781C2.61155 9.16781 2.3674 9.14531 2.1299 9.10031C2.62485 10.6059 4.06505 11.7009 5.7703 11.73C4.4365 12.7462 2.75785 13.35 0.93005 13.35C0.6156 13.35 0.3059 13.335 0 13.2984Z" fill="white"/>
</svg>
