<svg width="20" height="21" viewBox="0 0 20 21" fill="none" xmlns="http://www.w3.org/2000/svg">
<path d="M18.4618 15.1965C17.9474 14.7702 17.4038 14.38 16.861 13.9904C16.7474 13.9088 16.6338 13.8273 16.5205 13.7455C15.2154 12.8019 14.0217 12.7286 13.0478 14.2466C12.5009 15.0989 11.7354 15.1363 10.9349 14.7624C8.72809 13.7323 7.02399 12.1452 6.02582 9.83628C5.58423 8.81474 5.59009 7.89887 6.62317 7.17637C7.17017 6.79427 7.7212 6.34214 7.67713 5.50724C7.61963 4.4186 5.05188 0.780505 4.03791 0.39652C3.61835 0.237603 3.20051 0.247945 2.77363 0.395628C0.39594 1.21872 -0.588862 3.23162 0.354314 5.61502C3.16797 12.7257 8.11963 17.6759 14.9359 20.6973C15.2192 20.8228 15.5255 20.8933 15.7554 20.9463C15.8408 20.9659 15.9156 20.9832 15.9748 20.9999C17.5266 21.0159 19.3445 19.4769 19.8695 17.9494C20.3138 16.6578 19.5424 16.0509 18.7753 15.4474C18.6696 15.3643 18.5641 15.2812 18.4618 15.1965Z" fill="white"/>
<path d="M10.8191 1.12553C15.8022 1.91435 18.1003 4.3535 18.7349 9.52002C18.7477 9.62398 18.7495 9.73938 18.7513 9.85643C18.7581 10.2767 18.7651 10.7182 19.2825 10.7286C19.8602 10.7399 19.8387 10.2476 19.8195 9.80665C19.8157 9.72004 19.812 9.63541 19.813 9.55698C19.8715 4.69107 15.7498 0.180167 10.9632 0.0138471C10.8783 0.0264232 10.7721 0.0189206 10.6586 0.0109079C10.2894 -0.0151666 9.84382 -0.0466397 9.80817 0.590717C9.78327 1.04115 10.1828 1.07107 10.555 1.09893C10.647 1.10582 10.7373 1.11258 10.8191 1.12553Z" fill="white"/>
<path d="M11.7938 2.54214C11.7216 2.53319 11.6459 2.52031 11.569 2.50723C11.1356 2.43348 10.6649 2.35337 10.5697 2.93484C10.475 3.51683 10.9196 3.57958 11.3328 3.63789C11.4298 3.65157 11.525 3.66501 11.6111 3.68486C14.6888 4.39292 15.7604 5.54603 16.2672 8.68868C16.2819 8.77968 16.2879 8.88073 16.2939 8.98333C16.3184 9.39732 16.3444 9.83648 16.9506 9.74178C17.3742 9.67536 17.362 9.30996 17.351 8.98131C17.3474 8.87513 17.344 8.77278 17.3555 8.68559C17.3803 5.66841 14.8688 2.92224 11.7938 2.54214Z" fill="white"/>
<path d="M11.3249 5.40507C11.4425 5.05311 11.7565 5.01746 12.0764 5.00932C13.4407 4.97446 15.0394 6.6574 15.0168 8.11344C15.0308 8.51144 14.9894 8.93055 14.532 8.98672C14.202 9.02683 13.9851 8.74181 13.9511 8.39006C13.8249 7.09405 13.1605 6.3277 11.898 6.11907C11.5198 6.05654 11.1483 5.93112 11.3249 5.40507Z" fill="white"/>
</svg>
