<svg width="24" height="13" viewBox="0 0 24 13" fill="none" xmlns="http://www.w3.org/2000/svg">
<path fill-rule="evenodd" clip-rule="evenodd" d="M11.7425 12.9453H13.1772C13.1772 12.9453 13.6102 12.9003 13.8314 12.6742C14.0357 12.4658 14.0289 12.0755 14.0289 12.0755C14.0289 12.0755 14.0009 10.2483 14.8941 9.9787C15.7746 9.71318 16.9059 11.7448 18.1041 12.5261C19.0109 13.1175 19.6998 12.988 19.6998 12.988L22.9048 12.9453C22.9048 12.9453 24.581 12.8472 23.7861 11.596C23.7208 11.4938 23.3225 10.6699 21.4031 8.97776C19.393 7.20679 19.6625 7.49324 22.0836 4.42925C23.5573 2.56414 24.1471 1.4248 23.9623 0.937202C23.7869 0.472132 22.7031 0.595239 22.7031 0.595239L19.0939 0.616159C19.0939 0.616159 18.8261 0.58156 18.6278 0.694207C18.4346 0.80444 18.31 1.06192 18.31 1.06192C18.31 1.06192 17.738 2.5054 16.9771 3.73325C15.3703 6.32412 14.7271 6.46091 14.4644 6.29999C13.8535 5.92503 14.006 4.79454 14.006 3.99073C14.006 1.47951 14.4077 0.432706 13.2255 0.161549C12.8332 0.0722365 12.5442 0.0126947 11.5408 0.00303925C10.2536 -0.00983465 9.16383 0.00625774 8.54691 0.293507C8.13591 0.484201 7.81897 0.909845 8.01219 0.933983C8.25031 0.964559 8.79097 1.07238 9.07739 1.4425C9.44687 1.92045 9.43416 2.993 9.43416 2.993C9.43416 2.993 9.64686 5.94837 8.93757 6.31608C8.45115 6.56712 7.78423 6.05377 6.35124 3.70268C5.61738 2.49897 5.06316 1.16813 5.06316 1.16813C5.06316 1.16813 4.95639 0.9195 4.76572 0.785933C4.53437 0.62501 4.2115 0.573514 4.2115 0.573514L0.781993 0.595239C0.781993 0.595239 0.267609 0.608917 0.0786339 0.821337C-0.0900028 1.01042 0.0650752 1.40147 0.0650752 1.40147C0.0650752 1.40147 2.7497 7.3653 5.7894 10.3706C8.57742 13.1264 11.7425 12.9453 11.7425 12.9453Z" fill="white"/>
</svg>
