<svg width="20" height="14" viewBox="0 0 20 14" fill="none" xmlns="http://www.w3.org/2000/svg">
<path fill-rule="evenodd" clip-rule="evenodd" d="M7.93501 9.58173L7.93439 3.98907L13.3381 6.79504L7.93501 9.58173ZM19.8 3.01995C19.8 3.01995 19.6044 1.64838 19.005 1.04439C18.2444 0.2513 17.3919 0.247567 17.0012 0.201537C14.2025 0 10.0044 0 10.0044 0H9.99562C9.99562 0 5.7975 0 2.99875 0.201537C2.6075 0.247567 1.75563 0.2513 0.994375 1.04439C0.395 1.64838 0.2 3.01995 0.2 3.01995C0.2 3.01995 0 4.631 0 6.24144V7.75172C0 9.36278 0.2 10.9732 0.2 10.9732C0.2 10.9732 0.395 12.3448 0.994375 12.9488C1.75563 13.7419 2.755 13.717 3.2 13.7997C4.8 13.9527 10 14 10 14C10 14 14.2025 13.9938 17.0012 13.7922C17.3919 13.7456 18.2444 13.7419 19.005 12.9488C19.6044 12.3448 19.8 10.9732 19.8 10.9732C19.8 10.9732 20 9.36278 20 7.75172V6.24144C20 4.631 19.8 3.01995 19.8 3.01995Z" fill="white"/>
</svg>
