<svg width="100%" height="100%" viewBox="0 0 100 100">
	<path fill-rule="evenodd" clip-rule="evenodd" d="M49.941,99.039c-27.115,0-49.095-21.98-49.095-49.096c0-27.115,21.98-49.096,49.095-49.096c27.116,0,49.098,21.982,49.098,49.096C99.039,77.059,77.058,99.039,49.941,99.039z M49.941,8.43c-22.926,0-41.513,18.586-41.513,41.513c0,18.678,12.335,34.474,29.304,39.689c-0.006-0.951,0.006-6.691-0.008-7.696c-0.092-0.056-9.734,2.825-13.88-4.128c-0.659-1.13-1.73-5.102-4.622-7.3c-0.101-0.086-2.239-1.172-2.435-2.239c-0.022-0.148,0.137-0.46,0.348-0.536c0.22-0.081,3.735-1.518,7.652,3.43c1.182,1.656,3.849,8.008,13.183,4.083c0.251-0.979,0.751-3.236,3.715-3.852c-13.9-1.654-20.248-6.929-22.219-18.758c-1.23-8.062,1.135-14.764,4.688-18.072c-0.539-0.703-2.312-6.596,0.444-12.828c2.987-0.595,8.466,1.539,13.282,4.99c6.792-2.441,19.543-1.807,24.106,0c2.168-1.785,9.913-5.953,13.236-4.981c0.976,2.474,2.383,8.468,0.438,12.837c4.327,4.433,5.548,10.158,4.767,17.188c-0.956,10.655-7.515,18.267-22.243,19.523c3.71,2.546,3.874,6.53,4.002,8.101c0.033,3.663-0.042,8.649,0.005,10.225c16.948-5.225,29.265-21.012,29.265-39.676C91.455,27.016,72.869,8.43,49.941,8.43z"></path>
</svg>
