<svg xmlns="http://www.w3.org/2000/svg" width="16" height="15.969" viewBox="0 0 16 15.969">
  <defs>
    <style>
      .cls-1 {
        fill: #ececec;
        fill-rule: evenodd;
      }
    </style>
  </defs>
  <path id="Фигура_6" data-name="Фигура 6" class="cls-1" d="M1088,28a8.228,8.228,0,0,0-2.53,15.977,0.407,0.407,0,0,0,.55-0.389c0-.195-0.01-0.84-0.01-1.527-2.01.379-2.53-.5-2.69-0.963a2.982,2.982,0,0,0-.82-1.158c-0.28-.154-0.68-0.533-0.01-0.543a1.6,1.6,0,0,1,1.23.84,1.686,1.686,0,0,0,2.33.676,1.741,1.741,0,0,1,.51-1.1c-1.78-.2-3.64-0.912-3.64-4.048a3.236,3.236,0,0,1,.82-2.2,3.014,3.014,0,0,1,.08-2.173s0.67-.215,2.2.84a7.366,7.366,0,0,1,4,0c1.53-1.066,2.2-.84,2.2-0.84a3.014,3.014,0,0,1,.08,2.173,3.217,3.217,0,0,1,.82,2.2c0,3.146-1.87,3.843-3.65,4.048a1.968,1.968,0,0,1,.54,1.517c0,1.1-.01,1.978-0.01,2.255a0.4,0.4,0,0,0,.55.389A8.2,8.2,0,0,0,1096,36.2a8.1,8.1,0,0,0-8-8.2h0Z" transform="translate(-1080 -28)"/>
</svg>
