<svg xmlns="http://www.w3.org/2000/svg" width="18" height="18" viewBox="0 0 18 18">
  <defs>
    <style>
      .cls-1 {
        fill-rule: evenodd;
      }
    </style>
  </defs>
  <path id="Фигура_2" data-name="Фигура 2" class="cls-1" d="M8.3,6.2c0-.9-0.5-2.7-1.9-2.7A1.256,1.256,0,0,0,5.2,5c0,1.1.5,2.6,1.8,2.6A1.232,1.232,0,0,0,8.3,6.2h0ZM7.7,10.6H7.5a5.5,5.5,0,0,0-1.6.3,1.608,1.608,0,0,0-1.3,1.5c0,1,.9,2,2.7,2a1.976,1.976,0,0,0,2.2-1.8c-0.1-.6-0.6-1.1-1.8-2h0ZM16.2,0H1.8A1.793,1.793,0,0,0,0,1.8V16.2A1.793,1.793,0,0,0,1.8,18H16.2A1.793,1.793,0,0,0,18,16.2V1.8A1.793,1.793,0,0,0,16.2,0h0ZM6.4,15.5c-2.5,0-3.7-1.4-3.7-2.7a2.537,2.537,0,0,1,1.4-2.2,5.466,5.466,0,0,1,2.8-.8,1.078,1.078,0,0,1-.3-0.9,0.9,0.9,0,0,1,.1-0.5H6.3A2.739,2.739,0,0,1,3.4,5.7c0-1.5,1.2-3.2,3.7-3.2h3.8l-0.3.3L10,3.4l-0.1.1H9.3a2.666,2.666,0,0,1,.8,2A2.545,2.545,0,0,1,8.7,7.9a0.842,0.842,0,0,0-.4.7,0.538,0.538,0,0,0,.4.5C8.8,9.2,9,9.3,9.1,9.4A3.164,3.164,0,0,1,10.8,12c0,1.6-1.2,3.5-4.4,3.5h0ZM15.3,9H13.5v1.8H12.6V9H10.8V8.1h1.8V6.3h0.9V8.1h1.8V9Z"/>
</svg>
