<?xml version="1.0" encoding="utf-8"?>
<!-- Generator: Adobe Illustrator 17.1.0, SVG Export Plug-In . SVG Version: 6.00 Build 0)  -->
<!DOCTYPE svg PUBLIC "-//W3C//DTD SVG 1.1//EN" "http://www.w3.org/Graphics/SVG/1.1/DTD/svg11.dtd">
<svg version="1.1" id="Layer_1" xmlns="http://www.w3.org/2000/svg" xmlns:xlink="http://www.w3.org/1999/xlink" x="0px" y="0px"
	 viewBox="0 0 18 18" enable-background="new 0 0 18 18" xml:space="preserve">
<path d="M8.3,6.2c0-0.9-0.5-2.7-1.9-2.7C5.8,3.5,5.2,3.9,5.2,5c0,1.1,0.5,2.6,1.8,2.6C7,7.7,8.3,7.6,8.3,6.2L8.3,6.2z M7.7,10.6H7.5
	c-0.3,0-1.1,0.1-1.6,0.3c-0.6,0.2-1.3,0.6-1.3,1.5c0,1,0.9,2,2.7,2c1.4,0,2.2-0.9,2.2-1.8C9.4,12,8.9,11.5,7.7,10.6L7.7,10.6z
	 M16.2,0H1.8C0.8,0,0,0.8,0,1.8v14.4c0,1,0.8,1.8,1.8,1.8h14.4c1,0,1.8-0.8,1.8-1.8V1.8C18,0.8,17.2,0,16.2,0L16.2,0z M6.4,15.5
	c-2.5,0-3.7-1.4-3.7-2.7c0-0.4,0.1-1.4,1.4-2.2c0.7-0.5,1.6-0.7,2.8-0.8C6.7,9.6,6.6,9.4,6.6,8.9c0-0.2,0-0.3,0.1-0.5H6.3
	c-1.8,0-2.9-1.3-2.9-2.7c0-1.5,1.2-3.2,3.7-3.2h3.8l-0.3,0.3L10,3.4L9.9,3.5H9.3c0.4,0.4,0.8,1,0.8,2c0,1.3-0.6,1.9-1.4,2.4
	C8.5,8,8.3,8.3,8.3,8.6c0,0.3,0.2,0.4,0.4,0.5c0.1,0.1,0.3,0.2,0.4,0.3c0.7,0.5,1.7,1.2,1.7,2.6C10.8,13.6,9.6,15.5,6.4,15.5
	L6.4,15.5z M15.3,9h-1.8v1.8h-0.9V9h-1.8V8.1h1.8V6.3h0.9v1.8h1.8V9z"/>
</svg>
