<svg xmlns="http://www.w3.org/2000/svg" xmlns:xlink="http://www.w3.org/1999/xlink" preserveAspectRatio="xMidYMid" width="17" height="17" viewBox="0 0 17 17">
  <path d="M17.000,15.803 L15.803,17.000 L12.148,13.344 C10.866,14.365 9.265,15.000 7.500,15.000 C3.358,15.000 0.000,11.642 0.000,7.500 C0.000,3.358 3.358,0.000 7.500,0.000 C11.642,0.000 15.000,3.358 15.000,7.500 C15.000,9.265 14.365,10.866 13.345,12.147 L17.000,15.803 ZM7.500,2.000 C4.462,2.000 2.000,4.462 2.000,7.500 C2.000,10.538 4.462,13.000 7.500,13.000 C10.538,13.000 13.000,10.538 13.000,7.500 C13.000,4.462 10.538,2.000 7.500,2.000 Z"/>
</svg>
