<?xml version="1.0" encoding="utf-8"?>
<!-- Generator: Adobe Illustrator 17.1.0, SVG Export Plug-In . SVG Version: 6.00 Build 0)  -->
<!DOCTYPE svg PUBLIC "-//W3C//DTD SVG 1.1//EN" "http://www.w3.org/Graphics/SVG/1.1/DTD/svg11.dtd">
<svg version="1.1" id="Layer_1" xmlns="http://www.w3.org/2000/svg" xmlns:xlink="http://www.w3.org/1999/xlink" x="0px" y="0px"
	 viewBox="0 0 18 18" enable-background="new 0 0 18 18" xml:space="preserve">
<g>
	<g>
		<path fill-rule="evenodd" clip-rule="evenodd" d="M8.8,6.5L8.8,6.5c-1.5,0-2.4,1.2-2.4,2.6c0,1.6,1,2.5,2.3,2.5
			c1.5,0,2.4-1.1,2.5-2.4V8.9C11.2,7.4,10.1,6.5,8.8,6.5z M16.2,0H1.8C0.8,0,0,0.8,0,1.8v14.4c0,1,0.8,1.8,1.8,1.8h14.4
			c1,0,1.8-0.8,1.8-1.8V1.8C18,0.8,17.2,0,16.2,0z M13.8,13.4c-1,0.8-2.5,0-2.5-1.2l0-0.4C10.7,12.5,9.8,13,8.8,13
			c-2,0-3.7-1.8-3.7-3.9c0-2.1,1.7-3.9,3.7-3.9c1,0,1.9,0.5,2.6,1.2v0c0-0.3,0.2-0.6,0.5-0.6H12c0.5,0,0.6,0.5,0.6,0.6l0,5.4
			c0,0.4,0.3,0.5,0.6,0.3c0.8-0.9,1.8-4.6-0.5-6.7c-2.2-2-5.1-1.7-6.7-0.5C4.3,6,3.3,8.6,4.3,11.1c1.1,2.7,4.3,3.5,6.2,2.7
			c1-0.4,1.4,1,0.4,1.4c-1.5,0.7-5.7,0.6-7.7-3C1.9,9.9,2,5.6,5.5,3.5c2.7-1.7,6.3-1.2,8.4,1.1C16.2,7,16,11.6,13.8,13.4z"/>
	</g>
</g>
</svg>
