<svg xmlns="http://www.w3.org/2000/svg" width="18" height="18" viewBox="0 0 18 18">
  <defs>
    <style>
      .cls-1 {
        fill-rule: evenodd;
      }
    </style>
  </defs>
  <path id="Фигура_3" data-name="Фигура 3" class="cls-1" d="M8.8,6.5h0A2.419,2.419,0,0,0,6.4,9.1a2.263,2.263,0,0,0,2.3,2.5,2.456,2.456,0,0,0,2.5-2.4V8.9A2.309,2.309,0,0,0,8.8,6.5ZM16.2,0H1.8A1.793,1.793,0,0,0,0,1.8V16.2A1.793,1.793,0,0,0,1.8,18H16.2A1.793,1.793,0,0,0,18,16.2V1.8A1.793,1.793,0,0,0,16.2,0ZM13.8,13.4a1.566,1.566,0,0,1-2.5-1.2V11.8A3.338,3.338,0,0,1,8.8,13a3.905,3.905,0,0,1,0-7.8,3.733,3.733,0,0,1,2.6,1.2h0a0.56,0.56,0,0,1,.5-0.6H12a0.619,0.619,0,0,1,.6.6v5.4c0,0.4.3,0.5,0.6,0.3,0.8-.9,1.8-4.6-0.5-6.7A5.34,5.34,0,0,0,6,4.9a5.17,5.17,0,0,0-1.7,6.2,4.965,4.965,0,0,0,6.2,2.7c1-.4,1.4,1,0.4,1.4a6.511,6.511,0,0,1-7.7-3A6.6,6.6,0,0,1,5.5,3.5a6.674,6.674,0,0,1,8.4,1.1C16.2,7,16,11.6,13.8,13.4Z"/>
</svg>
