<svg xmlns="http://www.w3.org/2000/svg" width="18" height="18" viewBox="0 0 18 18">
  <defs>
    <style>
      .cls-1 {
        fill-rule: evenodd;
      }
    </style>
  </defs>
  <path id="Фигура_6" data-name="Фигура 6" class="cls-1" d="M16.2,0H1.8A1.793,1.793,0,0,0,0,1.8V16.2A1.793,1.793,0,0,0,1.8,18H16.2A1.793,1.793,0,0,0,18,16.2V1.8A1.793,1.793,0,0,0,16.2,0ZM9,2.5a3.483,3.483,0,0,1,3.4,3.6A3.543,3.543,0,0,1,8.9,9.6,3.529,3.529,0,0,1,5.6,6,3.337,3.337,0,0,1,9,2.5Zm3.9,8.4a3.956,3.956,0,0,1-1.5,1,8.469,8.469,0,0,1-1.7.4l0.2,0.2,2.4,2.4a0.8,0.8,0,0,1,.2.9,1.149,1.149,0,0,1-.9.6,0.864,0.864,0,0,1-.6-0.3L9.2,14.3a0.231,0.231,0,0,0-.4,0c-0.6.6-1.2,1.2-1.8,1.9a0.8,0.8,0,0,1-.9.2,0.874,0.874,0,0,1-.5-0.9,0.864,0.864,0,0,1,.3-0.6c0.8-.8,1.6-1.6,2.3-2.4l0.2-.2a5.257,5.257,0,0,1-2.8-1,0.53,0.53,0,0,0-.3-0.2,0.817,0.817,0,0,1-.1-1.2c0.2-.4.6-0.4,1.1-0.2a0.349,0.349,0,0,1,.2.1,4.353,4.353,0,0,0,5.1,0c0.2-.1.3-0.2,0.5-0.3a0.7,0.7,0,0,1,.9.4A0.92,0.92,0,0,1,12.9,10.9ZM9,7.7A1.752,1.752,0,0,0,10.7,6,1.628,1.628,0,0,0,9,4.3,1.685,1.685,0,0,0,7.3,6,1.752,1.752,0,0,0,9,7.7Z"/>
</svg>
