<?xml version="1.0" encoding="utf-8"?>
<!-- Generator: Adobe Illustrator 17.1.0, SVG Export Plug-In . SVG Version: 6.00 Build 0)  -->
<!DOCTYPE svg PUBLIC "-//W3C//DTD SVG 1.1//EN" "http://www.w3.org/Graphics/SVG/1.1/DTD/svg11.dtd">
<svg version="1.1" id="Layer_1" xmlns="http://www.w3.org/2000/svg" xmlns:xlink="http://www.w3.org/1999/xlink" x="0px" y="0px"
	 viewBox="0 0 18 18" enable-background="new 0 0 18 18" xml:space="preserve">
<g>
	<g>
		<path fill-rule="evenodd" clip-rule="evenodd" d="M16.2,0H1.8C0.8,0,0,0.8,0,1.8v14.4c0,1,0.8,1.8,1.8,1.8h14.4
			c1,0,1.8-0.8,1.8-1.8V1.8C18,0.8,17.2,0,16.2,0z M9,2.5c1.9,0,3.4,1.6,3.4,3.6c0,1.9-1.6,3.5-3.5,3.5C7.1,9.5,5.5,7.9,5.6,6
			C5.6,4,7.1,2.4,9,2.5z M12.9,10.9c-0.4,0.4-0.9,0.8-1.5,1c-0.5,0.2-1.1,0.3-1.7,0.4c0.1,0.1,0.1,0.1,0.2,0.2
			c0.8,0.8,1.6,1.6,2.4,2.4c0.3,0.3,0.3,0.6,0.2,0.9c-0.2,0.3-0.5,0.6-0.9,0.6c-0.2,0-0.4-0.1-0.6-0.3c-0.6-0.6-1.2-1.2-1.8-1.8
			c-0.2-0.2-0.3-0.1-0.4,0c-0.6,0.6-1.2,1.2-1.8,1.9c-0.3,0.3-0.6,0.3-0.9,0.2c-0.3-0.2-0.6-0.5-0.5-0.9c0-0.2,0.1-0.4,0.3-0.6
			c0.8-0.8,1.6-1.6,2.3-2.4c0.1-0.1,0.1-0.1,0.2-0.2c-1.1-0.1-2-0.4-2.8-1c-0.1-0.1-0.2-0.2-0.3-0.2c-0.4-0.3-0.4-0.8-0.1-1.2
			c0.2-0.4,0.6-0.4,1.1-0.2c0.1,0,0.2,0.1,0.2,0.1c1.5,1.1,3.6,1.1,5.1,0c0.2-0.1,0.3-0.2,0.5-0.3c0.4-0.1,0.7,0,0.9,0.4
			C13.2,10.2,13.1,10.6,12.9,10.9z M9,7.7c0.9,0,1.7-0.8,1.7-1.7c0-1-0.7-1.7-1.7-1.7C8.1,4.3,7.3,5,7.3,6C7.3,6.9,8.1,7.7,9,7.7z"
			/>
	</g>
</g>
</svg>
