<svg xmlns="http://www.w3.org/2000/svg" xmlns:xlink="http://www.w3.org/1999/xlink" preserveAspectRatio="xMidYMid" width="16" height="16" viewBox="0 0 16 16">
	<path d="M15.751,16.000 L15.738,16.000 L12.638,16.000 C12.504,16.000 12.393,15.888 12.393,15.753 C12.393,9.049 6.945,3.595 0.247,3.595 C0.111,3.595 -0.000,3.485 -0.000,3.349 L-0.000,0.248 C-0.000,0.111 0.111,-0.000 0.247,-0.000 C8.898,-0.000 15.943,7.023 15.986,15.676 L16.000,15.753 C16.000,15.888 15.886,16.000 15.751,16.000 ZM0.247,5.226 C6.018,5.226 10.722,9.908 10.765,15.676 L10.777,15.753 C10.777,15.887 10.666,15.999 10.529,15.999 L10.518,15.999 L7.506,15.999 C7.369,15.999 7.260,15.887 7.260,15.753 C7.260,11.882 4.112,8.734 0.247,8.734 C0.111,8.734 -0.000,8.623 -0.000,8.487 L-0.000,5.474 C-0.000,5.337 0.111,5.226 0.247,5.226 ZM2.372,11.254 C3.680,11.254 4.744,12.318 4.744,13.628 C4.744,14.934 3.680,16.000 2.372,16.000 C1.064,16.000 -0.000,14.934 -0.000,13.628 C-0.000,12.318 1.064,11.254 2.372,11.254 Z"/>
</svg>
