<svg xmlns="http://www.w3.org/2000/svg" width="18" height="18" viewBox="0 0 18 18">
  <defs>
    <style>
      .cls-1 {
        fill-rule: evenodd;
      }
    </style>
  </defs>
  <path id="Фигура_5" data-name="Фигура 5" class="cls-1" d="M16.2,0H1.8A1.793,1.793,0,0,0,0,1.8V16.2A1.793,1.793,0,0,0,1.8,18H16.2A1.793,1.793,0,0,0,18,16.2V1.8A1.793,1.793,0,0,0,16.2,0h0ZM14.1,6.6c-0.1,4.1-2.7,7-6.7,7.2a6.2,6.2,0,0,1-3.9-1.1,4.708,4.708,0,0,0,3.5-1A2.248,2.248,0,0,1,4.9,10a3.334,3.334,0,0,0,1,0A2.484,2.484,0,0,1,4,7.6a1.689,1.689,0,0,0,1,.3,2.7,2.7,0,0,1-.8-3.3A7.067,7.067,0,0,0,9.1,7.1C8.6,4.6,12,3.2,13.3,4.9a13.081,13.081,0,0,0,1.5-.5,2.209,2.209,0,0,1-1,1.3,6.468,6.468,0,0,0,1.3-.4,2.43,2.43,0,0,1-1,1.3h0Z"/>
</svg>
