<?xml version="1.0" encoding="utf-8"?>
<!-- Generator: Adobe Illustrator 17.1.0, SVG Export Plug-In . SVG Version: 6.00 Build 0)  -->
<!DOCTYPE svg PUBLIC "-//W3C//DTD SVG 1.1//EN" "http://www.w3.org/Graphics/SVG/1.1/DTD/svg11.dtd">
<svg version="1.1" id="Layer_1" xmlns="http://www.w3.org/2000/svg" xmlns:xlink="http://www.w3.org/1999/xlink" x="0px" y="0px"
	 viewBox="0 0 18 18" enable-background="new 0 0 18 18" xml:space="preserve">
<g>
	<g>
		<path fill-rule="evenodd" clip-rule="evenodd" d="M16.2,0H1.8C0.8,0,0,0.8,0,1.8v14.4c0,1,0.8,1.8,1.8,1.8h14.4
			c1,0,1.8-0.8,1.8-1.8V1.8C18,0.8,17.2,0,16.2,0z M13.7,10.4c0.4,0.4,0.9,0.8,1.3,1.3c0.2,0.2,0.3,0.4,0.5,0.7
			c0.2,0.3,0,0.7-0.3,0.7h-1.9c-0.5,0-0.9-0.2-1.2-0.5c-0.3-0.3-0.5-0.6-0.8-0.8c-0.1-0.1-0.2-0.2-0.3-0.3c-0.3-0.2-0.5-0.1-0.6,0.2
			c-0.2,0.3-0.2,0.6-0.2,0.9c0,0.4-0.2,0.6-0.6,0.6c-1,0-1.9-0.1-2.7-0.6c-0.7-0.4-1.3-1-1.8-1.7C4,9.5,3.2,8,2.5,6.5
			C2.4,6.2,2.5,6,2.9,6c0.6,0,1.2,0,1.9,0C5,6,5.1,6.1,5.2,6.4C5.6,7.2,6,8,6.5,8.7C6.6,8.9,6.8,9.1,7,9.2c0.2,0.2,0.4,0.1,0.5-0.1
			c0.1-0.2,0.1-0.3,0.1-0.5c0-0.6,0.1-1.1,0-1.7C7.5,6.5,7.3,6.3,6.9,6.2C6.8,6.2,6.8,6.1,6.9,6C7,5.8,7.2,5.7,7.5,5.7l2.2,0
			C10,5.8,10,5.9,10.1,6.3l0,2.4c0,0.1,0.1,0.5,0.3,0.6c0.2,0.1,0.3-0.1,0.4-0.2c0.5-0.5,0.9-1.2,1.2-1.9c0.1-0.3,0.3-0.6,0.4-0.9
			C12.5,6.1,12.6,6,12.9,6L15,6c0.1,0,0.1,0,0.2,0c0.3,0.1,0.4,0.2,0.3,0.5c-0.2,0.5-0.5,1-0.8,1.4c-0.3,0.5-0.7,0.9-1.1,1.4
			C13.3,9.8,13.3,10,13.7,10.4z"/>
	</g>
</g>
</svg>
