<svg version="1" xmlns="http://www.w3.org/2000/svg" width="1333.333" height="1333.333" viewBox="0 0 1000.000000 1000.000000"><path d="M281.9 119.4c-.2.2-4 .7-8.4 1-4.4.4-8.7.9-9.5 1.1-1.4.4-3.7.8-11.2 2-11.1 1.8-31.5 7.6-44.3 12.7-68.6 27.2-119.3 82-140.9 152.3-3.1 10.1-7.3 29.2-8.1 37-.4 3.3-1.1 8.9-1.5 12.5-.9 6.8-.6 44.7.4 51.5.3 2.2.8 5.8 1.1 8 .7 5.7 2.3 14.8 3.1 18 .1.5.4 2.1.7 3.5 5.6 28 19 62.1 37.4 95.5 13.7 24.8 43.2 66.1 66.9 93.5 25.2 29.2 35.5 40.2 69.9 74.5 27.7 27.7 43.5 42.9 66 63.6 3.9 3.5 9.3 8.5 12 11 2.8 2.5 10 9.1 16 14.5 6.1 5.4 11.2 10.1 11.5 10.4.3.3 8.8 8 19 17s18.7 16.7 19 17c.3.3 6.1 5.4 13 11.4 11.3 9.9 21.2 18.6 27.4 24.1 1.3 1.1 5.4 4.7 9.1 8 3.8 3.3 21 19.9 38.2 37 17.3 17.1 31.6 31 31.8 31 .2 0 14.3-13.7 31.2-30.5 17-16.8 34.2-33.4 38.3-37 4.1-3.6 7.7-6.7 8-7 .3-.3 4.3-3.9 9-7.9 4.7-4.1 9-8 9.5-8.5.6-.6 4.4-4 8.5-7.5 4.1-3.6 8-6.9 8.5-7.5.6-.6 4.2-3.8 8-7.1 3.9-3.3 7.2-6.2 7.5-6.5.3-.3 4.5-4.1 9.5-8.5 10.9-9.7 9.3-8.3 20.1-18 8.4-7.6 31.7-28.8 34-31 .6-.5 6-5.5 12-11 22.3-20.7 30.7-28.7 59.4-57.5 30.3-30.3 36.4-36.6 51-53 4.7-5.2 9-10 9.5-10.6.6-.6 3-3.5 5.5-6.4 2.5-3 5.9-7 7.6-9 5-5.8 19.6-24.1 23.9-30 2.2-3 4.3-6 4.7-6.5 3.6-4.6 8.6-11.7 14.9-21.2 34.2-51.4 52.2-95.2 60.4-146.7 2.9-18.7 2.7-58.9-.5-76.8-.5-2.9-1.2-6.9-1.5-8.8-3.6-22.1-15.7-54.2-29-76.8-13.5-23-37.3-50.1-57.5-65.5-4.1-3.1-7.9-6.1-8.5-6.5-2.5-1.9-10.4-7.2-10.9-7.2-.3 0-2.5-1.4-5-3-13.2-9-40.8-20.6-62.6-26.4-23.5-6.2-38.8-8.1-66-8.1-16 0-27.6.6-34.6 1.9-3.3.6-8.8 1.5-12.4 2.1-6.1 1-26.5 6.4-34.7 9.1-40.5 13.6-78.9 37.8-108 68.1l-9.7 10.1-11.6-11.7c-40.1-40.7-88.7-66.1-146.5-76.6-1.6-.3-5.2-.8-8-1.1-2.7-.3-6.1-.8-7.5-1.1-2.8-.6-44.6-1.4-45.1-.9z"/></svg>