<svg version="1" xmlns="http://www.w3.org/2000/svg" width="933.333" height="933.333" viewBox="0 0 700 700"><path d="M225.7 118.6c-.1.2-3.3.4-7.1.5-3.7.1-10 .8-13.9 1.5-54.4 9.5-96.4 45.5-113.7 97.4-2.9 8.6-3.3 10-5.1 20-8.3 46.8 5.1 95.4 40.1 145.5 19 27.3 36.4 47.1 73.7 84 20.4 20.2 28.6 28.1 41.7 40 1.9 1.6 7.8 7.1 13.2 12.1 5.5 5 12.1 11 14.9 13.5 2.7 2.4 5.9 5.3 7.1 6.4 1.1 1.1 3.6 3.3 5.5 5 3.1 2.7 14.4 12.7 25.3 22.5 2.1 1.9 12.4 12 22.7 22.3 10.3 10.4 19.2 18.6 19.7 18.3.5-.3 8.1-7.8 16.8-16.6 8.7-8.8 21.3-20.9 27.9-26.8 6.6-5.9 12.7-11.4 13.5-12.2.9-.8 4.7-4.2 8.5-7.5 3.7-3.3 7.3-6.5 7.9-7 .6-.6 5.8-5.3 11.6-10.5s11.4-10.4 12.6-11.5c1.1-1.1 6.9-6.5 12.9-12 90-82.5 134.4-141.4 148.1-196 .7-2.6 3.5-16 4-18.8 1-5.4 1.3-39.4.4-43.4-.5-2.1-1.1-5.8-1.5-8.3-1.2-8.8-5.8-23.5-10.5-33.6-1.6-3.6-3-6.7-3-7 0-.2-2.2-4.1-5-8.5-16.8-27.1-40.1-47-68.5-58.4-9.1-3.6-24.4-7.9-32.5-9-2.5-.3-5.3-.8-6.3-1.1-1-.3-8.2-.6-16-.5-13.2 0-18.3.3-24.7 1.6-1.4.3-4.1.8-6 1.1-19.1 3.4-40.4 12.3-59 24.7-8.9 6-12.8 9.3-23.6 19.9l-8.1 7.9-8.4-8.3c-10.1-10.1-12.1-11.7-22.5-19-20.8-14.5-48.4-24.8-73.4-27.4-6.2-.6-18.9-1.1-19.3-.8z"/></svg>