<svg version="1.0" xmlns="http://www.w3.org/2000/svg" width="682.667" height="682.667" viewBox="0 0 512 512"><path d="M341.7 86.5c-.1.2-3.6.5-7.7.8-17.1 1.4-34.2 6.9-49.8 16.2-8.9 5.3-14 9.3-22.6 17.7-3.2 3.2-5.9 5.8-6 5.8-.1 0-3.8-3.4-8.2-7.6-16.7-16.1-34.1-24.9-61.4-31.3-4.6-1.1-33.5-.9-38 .3-1.4.3-3.8.9-5.4 1.1-4.6.9-16.1 5.1-23 8.5-23.6 11.6-40.3 29.9-51.1 56-1.8 4.4-3.2 8-3 8 .2 0-.1 1.5-.6 3.2-3.3 11.1-4.5 33.6-2.4 46.8 4.9 31.5 22.1 62.9 55 100.5 8.3 9.6 39.4 40.7 54.5 54.5 6.9 6.3 14.8 13.6 17.5 16.1 2.8 2.5 11.5 10.4 19.5 17.5 8 7 21.6 19.8 30.3 28.3 8.7 8.6 16 15.5 16.3 15.4.3 0 7.9-7.2 16.7-16 8.9-8.7 19.3-18.5 23.1-21.8 3.7-3.3 7.8-6.9 9-8 5.6-5.1 21.2-19.2 23.5-21.4 1.4-1.3 7.1-6.4 12.6-11.5 23.3-21.4 51.8-50.9 64.8-67.1.9-1.1 3.2-4 5.2-6.4 10.9-13.3 25.3-38 30.8-52.9 6.2-16.7 8.1-27.3 8.1-45.2.1-28.9-7.8-50.3-26.7-72.3-12.2-14.2-29-24.4-51.7-31.5-5.5-1.7-28.2-4.5-29.3-3.7z"/></svg>