<svg xmlns="http://www.w3.org/2000/svg" class="icons-sprite">
	<symbol id="add" viewBox="0 0 16 16">
		<path fill-rule="evenodd" d="M8 0a8 8 0 1 0 0 16A8 8 0 0 0 8 0zm4 9H9v3H7V9H4V7h3V4h2v3h3v2z"/>
	</symbol>
	<symbol id="chevron-down" viewBox="0 0 10 5" preserveAspectRatio="xMidYMid" >
		<path d="M5 5L0 1.072.683 0 5 3.391 9.317 0 10 1.072 5 5z"/>
	</symbol>
	<symbol id="chevron-left" viewBox="0 0 7.13 14" preserveAspectRatio="xMidYMid" >
		<path d="M0 7l5.598-7 1.528.956L2.293 7l4.833 6.043L5.598 14 0 7z"/>
	</symbol>
	<symbol id="chevron-right" viewBox="0 0 7.12 14" preserveAspectRatio="xMidYMid" >
		<path d="M7.12 7l-5.598 7-1.528-.957L4.827 7-.006.956 1.522 0 7.12 7z"/>
	</symbol>
	<symbol id="chevron-up" viewBox="0 0 10 5" preserveAspectRatio="xMidYMid" >
		<path d="M5 0l5 3.928L9.317 5 5 1.609.683 5 0 3.928 5 0z" class="cls-1"/>
	</symbol>
	<symbol id="close" viewBox="0 0 16 16" preserveAspectRatio="xMidYMid" >
		<path d="M16 14.546L14.545 16 8 9.455 1.455 16 0 14.546 6.545 8 0 1.455 1.455 0 8 6.546 14.545 0 16 1.455 9.454 8 16 14.546z" class="cls-1"/>
	</symbol>
	<symbol id="cursor" viewBox="0 0 347.451 347.451">
		<path d="M289.834 194.854L57.617 0v303.138l65.863-79.077 57.537 123.39 63.442-29.584-57.538-123.389z"/>
	</symbol>
	<symbol id="fb" viewBox="0 0 18 18">
		<path d="M16.2 0H1.8C.8 0 0 .8 0 1.8v14.4c0 1 .8 1.8 1.8 1.8h14.4c1 0 1.8-.8 1.8-1.8V1.8c0-1-.8-1.8-1.8-1.8zm-.9 1.8v2.7h-1.8c-.5 0-.9.4-.9.9v1.8h2.7v2.7h-2.7v6.3H9.9V9.9H8.1V7.2h1.8V4.9c0-1.7 1.4-3.1 3.2-3.1h2.2z"/>
	</symbol>
	<symbol id="github-octocat" viewBox="0 0 100 100">
		<path fill-rule="evenodd" clip-rule="evenodd" d="M49.941 99.039C22.826 99.039.846 77.059.846 49.943.846 22.828 22.826.847 49.941.847c27.116 0 49.098 21.982 49.098 49.096 0 27.116-21.981 49.096-49.098 49.096zm0-90.609c-22.926 0-41.513 18.586-41.513 41.513 0 18.678 12.335 34.474 29.304 39.689-.006-.951.006-6.691-.008-7.696-.092-.056-9.734 2.825-13.88-4.128-.659-1.13-1.73-5.102-4.622-7.3-.101-.086-2.239-1.172-2.435-2.239-.022-.148.137-.46.348-.536.22-.081 3.735-1.518 7.652 3.43 1.182 1.656 3.849 8.008 13.183 4.083.251-.979.751-3.236 3.715-3.852-13.9-1.654-20.248-6.929-22.219-18.758-1.23-8.062 1.135-14.764 4.688-18.072-.539-.703-2.312-6.596.444-12.828 2.987-.595 8.466 1.539 13.282 4.99 6.792-2.441 19.543-1.807 24.106 0 2.168-1.785 9.913-5.953 13.236-4.981.976 2.474 2.383 8.468.438 12.837 4.327 4.433 5.548 10.158 4.767 17.188-.956 10.655-7.515 18.267-22.243 19.523 3.71 2.546 3.874 6.53 4.002 8.101.033 3.663-.042 8.649.005 10.225 16.948-5.225 29.265-21.012 29.265-39.676C91.455 27.016 72.869 8.43 49.941 8.43z"/>
	</symbol>
	<symbol id="gp" viewBox="0 0 18 18">
		<path d="M8.3 6.2c0-.9-.5-2.7-1.9-2.7-.6 0-1.2.4-1.2 1.5S5.7 7.6 7 7.6c0 .1 1.3 0 1.3-1.4zm-.6 4.4h-.2c-.3 0-1.1.1-1.6.3-.6.2-1.3.6-1.3 1.5 0 1 .9 2 2.7 2 1.4 0 2.2-.9 2.2-1.8-.1-.6-.6-1.1-1.8-2zM16.2 0H1.8C.8 0 0 .8 0 1.8v14.4c0 1 .8 1.8 1.8 1.8h14.4c1 0 1.8-.8 1.8-1.8V1.8c0-1-.8-1.8-1.8-1.8zM6.4 15.5c-2.5 0-3.7-1.4-3.7-2.7 0-.4.1-1.4 1.4-2.2.7-.5 1.6-.7 2.8-.8-.2-.2-.3-.4-.3-.9 0-.2 0-.3.1-.5h-.4c-1.8 0-2.9-1.3-2.9-2.7 0-1.5 1.2-3.2 3.7-3.2h3.8l-.3.3-.6.6-.1.1h-.6c.4.4.8 1 .8 2 0 1.3-.6 1.9-1.4 2.4-.2.1-.4.4-.4.7 0 .3.2.4.4.5.1.1.3.2.4.3.7.5 1.7 1.2 1.7 2.6 0 1.6-1.2 3.5-4.4 3.5zM15.3 9h-1.8v1.8h-.9V9h-1.8v-.9h1.8V6.3h.9v1.8h1.8V9z"/>
	</symbol>
	<symbol id="grid" viewBox="0 0 35 35">
		<path d="M0 0h16v16H0zm19 0h16v16H19zM0 19h16v16H0zm19 0h16v16H19z"/>
	</symbol>
	<symbol id="hamburger" viewBox="0 0 20 14" preserveAspectRatio="xMidYMid" >
		<path d="M0 14v-2h20v2H0zm0-8h20v2H0V6zm0-6h20v2H0V0z"/>
	</symbol>
	<symbol id="heart" viewBox="0 0 510 510">
		<path d="M255 489.6l-35.7-35.7C86.7 336.6 0 257.55 0 160.65 0 81.6 61.2 20.4 140.25 20.4c43.35 0 86.7 20.4 114.75 53.55C283.05 40.8 326.4 20.4 369.75 20.4 448.8 20.4 510 81.6 510 160.65c0 96.9-86.7 175.95-219.3 293.25L255 489.6z"/>
	</symbol>
	<symbol id="input" viewBox="0 0 41 41">
		<path d="M27.999 10.5H0v20h27.999v-20zm-4 16H4v-12h19.999v12zM41 6.5v-4H27v4h5v28h-5v4h14v-4h-5v-28h5z"/>
	</symbol>
	<symbol id="maginifer" viewBox="0 0 17 17" preserveAspectRatio="xMidYMid" >
		<path d="M17 15.803L15.803 17l-3.655-3.656C10.866 14.365 9.265 15 7.5 15A7.5 7.5 0 1 1 15 7.5c0 1.765-.635 3.366-1.655 4.647L17 15.803zM7.5 2a5.5 5.5 0 1 0 0 11 5.5 5.5 0 1 0 0-11z"/>
	</symbol>
	<symbol id="mr" viewBox="0 0 18 18">
		<path fill-rule="evenodd" clip-rule="evenodd" d="M8.8 6.5c-1.5 0-2.4 1.2-2.4 2.6 0 1.6 1 2.5 2.3 2.5 1.5 0 2.4-1.1 2.5-2.4v-.3c0-1.5-1.1-2.4-2.4-2.4zM16.2 0H1.8C.8 0 0 .8 0 1.8v14.4c0 1 .8 1.8 1.8 1.8h14.4c1 0 1.8-.8 1.8-1.8V1.8c0-1-.8-1.8-1.8-1.8zm-2.4 13.4c-1 .8-2.5 0-2.5-1.2v-.4c-.6.7-1.5 1.2-2.5 1.2-2 0-3.7-1.8-3.7-3.9 0-2.1 1.7-3.9 3.7-3.9 1 0 1.9.5 2.6 1.2 0-.3.2-.6.5-.6h.1c.5 0 .6.5.6.6v5.4c0 .4.3.5.6.3.8-.9 1.8-4.6-.5-6.7-2.2-2-5.1-1.7-6.7-.5C4.3 6 3.3 8.6 4.3 11.1c1.1 2.7 4.3 3.5 6.2 2.7 1-.4 1.4 1 .4 1.4-1.5.7-5.7.6-7.7-3C1.9 9.9 2 5.6 5.5 3.5c2.7-1.7 6.3-1.2 8.4 1.1 2.3 2.4 2.1 7-.1 8.8z"/>
	</symbol>
	<symbol id="ok" viewBox="0 0 18 18">
		<path fill-rule="evenodd" clip-rule="evenodd" d="M16.2 0H1.8C.8 0 0 .8 0 1.8v14.4c0 1 .8 1.8 1.8 1.8h14.4c1 0 1.8-.8 1.8-1.8V1.8c0-1-.8-1.8-1.8-1.8zM9 2.5c1.9 0 3.4 1.6 3.4 3.6 0 1.9-1.6 3.5-3.5 3.5C7.1 9.5 5.5 7.9 5.6 6c0-2 1.5-3.6 3.4-3.5zm3.9 8.4c-.4.4-.9.8-1.5 1-.5.2-1.1.3-1.7.4l.2.2 2.4 2.4c.3.3.3.6.2.9-.2.3-.5.6-.9.6-.2 0-.4-.1-.6-.3l-1.8-1.8c-.2-.2-.3-.1-.4 0-.6.6-1.2 1.2-1.8 1.9-.3.3-.6.3-.9.2-.3-.2-.6-.5-.5-.9 0-.2.1-.4.3-.6.8-.8 1.6-1.6 2.3-2.4l.2-.2c-1.1-.1-2-.4-2.8-1-.1-.1-.2-.2-.3-.2-.4-.3-.4-.8-.1-1.2.2-.4.6-.4 1.1-.2.1 0 .2.1.2.1 1.5 1.1 3.6 1.1 5.1 0 .2-.1.3-.2.5-.3.4-.1.7 0 .9.4.2.3.1.7-.1 1zM9 7.7c.9 0 1.7-.8 1.7-1.7 0-1-.7-1.7-1.7-1.7-.9 0-1.7.7-1.7 1.7 0 .9.8 1.7 1.7 1.7z"/>
	</symbol>
	<symbol id="rss" viewBox="0 0 16 16" preserveAspectRatio="xMidYMid" >
		<path d="M15.751 16h-3.113a.248.248 0 0 1-.245-.247c0-6.704-5.448-12.158-12.146-12.158A.247.247 0 0 1 0 3.349V.248C0 .111.111 0 .247 0c8.651 0 15.696 7.023 15.739 15.676l.014.077a.25.25 0 0 1-.249.247zM.247 5.226c5.771 0 10.475 4.682 10.518 10.45l.012.077a.248.248 0 0 1-.248.246H7.506a.246.246 0 0 1-.246-.246c0-3.871-3.148-7.019-7.013-7.019A.248.248 0 0 1 0 8.487V5.474c0-.137.111-.248.247-.248zm2.125 6.028a2.375 2.375 0 0 1 2.372 2.374A2.376 2.376 0 0 1 2.372 16 2.376 2.376 0 0 1 0 13.628a2.375 2.375 0 0 1 2.372-2.374z"/>
	</symbol>
	<symbol id="text" viewBox="0 0 475.082 475.082">
		<path d="M473.371 433.11c-10.657-3.997-20.458-6.563-29.407-7.706-8.945-.767-15.516-2.95-19.701-6.567-2.475-1.529-5.808-6.95-9.996-16.279-7.806-15.604-13.989-29.786-18.555-42.537-7.427-20.181-13.617-35.789-18.565-46.829-10.845-25.311-19.982-47.678-27.401-67.092-4.001-10.466-15.797-38.731-35.405-84.796L255.813 24.265l-3.142-5.996h-36.543l-79.94 206.704-67.665 175.874c-5.33 9.896-9.9 16.372-13.706 19.417-3.996 2.848-14.466 5.805-31.405 8.843-11.042 2.102-18.654 3.812-22.841 5.141L0 456.812h5.996c16.37 0 32.264-1.334 47.679-3.997l13.706-2.279c53.868 3.806 87.082 5.708 99.642 5.708.381-1.902.571-4.476.571-7.706 0-5.715-.094-11.231-.287-16.563-3.996-.568-7.851-1.143-11.561-1.711-3.711-.575-6.567-1.047-8.565-1.431-1.997-.373-3.284-.568-3.855-.568-14.657-2.094-24.46-5.14-29.407-9.134-3.236-2.282-4.854-6.375-4.854-12.278 0-3.806 2.19-11.796 6.567-23.982 14.277-39.776 24.172-65.856 29.692-78.224l128.483.568 26.269 65.096 13.411 32.541c1.144 3.241 1.711 6.283 1.711 9.138s-1.14 5.428-3.426 7.707c-2.285 1.905-8.753 4.093-19.417 6.563l-37.404 7.994c-.763 6.283-1.136 13.702-1.136 22.271l16.56-.575 57.103-3.138c10.656-.38 23.51-.575 38.547-.575 18.264 0 36.251.763 53.957 2.282 21.313 1.523 39.588 2.283 54.819 2.283.192-2.283.281-4.754.281-7.423 0-3.422-.569-8.842-1.711-16.269zM251.245 270.941c-2.666 0-7.662-.052-14.989-.144-7.327-.089-18.649-.233-33.973-.425-15.321-.195-29.93-.383-43.824-.574l48.535-128.477c7.424 15.037 16.178 35.117 26.264 60.242 11.425 27.79 20.179 50.727 26.273 68.809l-8.286.569z"/>
	</symbol>
	<symbol id="tw" viewBox="0 0 18 18">
		<path d="M16.2 0H1.8C.8 0 0 .8 0 1.8v14.4c0 1 .8 1.8 1.8 1.8h14.4c1 0 1.8-.8 1.8-1.8V1.8c0-1-.8-1.8-1.8-1.8zm-2.1 6.6c-.1 4.1-2.7 7-6.7 7.2-1.6.1-2.8-.4-3.9-1.1 1.2.2 2.7-.3 3.5-1-1.1-.1-1.8-.7-2.1-1.7.4.1.7 0 1 0C4.8 9.6 4.1 9 4 7.6c.3.2.6.3 1 .3-.9-.5-1.4-2.2-.8-3.3 1.2 1.3 2.6 2.3 4.9 2.5-.5-2.5 2.9-3.9 4.2-2.2.6-.1 1.1-.4 1.5-.5-.2.6-.5 1-1 1.3.4-.1.9-.2 1.3-.4-.1.5-.5.9-1 1.3z"/>
	</symbol>
	<symbol id="vk" viewBox="0 0 18 18">
		<path fill-rule="evenodd" clip-rule="evenodd" d="M16.2 0H1.8C.8 0 0 .8 0 1.8v14.4c0 1 .8 1.8 1.8 1.8h14.4c1 0 1.8-.8 1.8-1.8V1.8c0-1-.8-1.8-1.8-1.8zm-2.5 10.4c.4.4.9.8 1.3 1.3.2.2.3.4.5.7.2.3 0 .7-.3.7h-1.9c-.5 0-.9-.2-1.2-.5-.3-.3-.5-.6-.8-.8l-.3-.3c-.3-.2-.5-.1-.6.2-.2.3-.2.6-.2.9 0 .4-.2.6-.6.6-1 0-1.9-.1-2.7-.6-.7-.4-1.3-1-1.8-1.7C4 9.5 3.2 8 2.5 6.5c-.1-.3 0-.5.4-.5h1.9c.2 0 .3.1.4.4.4.8.8 1.6 1.3 2.3.1.2.3.4.5.5.2.2.4.1.5-.1.1-.2.1-.3.1-.5 0-.6.1-1.1 0-1.7-.1-.4-.3-.6-.7-.7-.1 0-.1-.1 0-.2.1-.2.3-.3.6-.3h2.2c.3.1.3.2.4.6v2.4c0 .1.1.5.3.6.2.1.3-.1.4-.2.5-.5.9-1.2 1.2-1.9.1-.3.3-.6.4-.9.1-.2.2-.3.5-.3h2.3c.3.1.4.2.3.5-.2.5-.5 1-.8 1.4-.3.5-.7.9-1.1 1.4-.3.5-.3.7.1 1.1z"/>
	</symbol></svg>