<svg class="icons-sprite" xmlns="http://www.w3.org/2000/svg">
  <symbol id="close" viewBox="0 0 16 16">
    <path d="M16 14.546L14.545 16 8 9.455 1.455 16 0 14.546 6.545 8 0 1.455 1.455 0 8 6.546 14.545 0 16 1.455 9.454 8 16 14.546z"/>
  </symbol>
  <symbol id="github-octocat" viewBox="0 0 16 16">
    <path d="M8 0C3.58 0 0 3.58 0 8c0 3.54 2.29 6.53 5.47 7.59.4.07.55-.17.55-.38 0-.19-.01-.82-.01-1.49-2.01.37-2.53-.49-2.69-.94-.09-.23-.48-.94-.82-1.13-.28-.15-.68-.52-.01-.53.63-.01 1.08.58 1.23.82.72 1.21 1.87.87 2.33.66.07-.52.28-.87.51-1.07-1.78-.2-3.64-.89-3.64-3.95 0-.87.31-1.59.82-2.15-.08-.2-.36-1.02.08-2.12 0 0 .67-.21 2.2.82.64-.18 1.32-.27 2-.27.68 0 1.36.09 2 .27 1.53-1.04 2.2-.82 2.2-.82.44 1.1.16 1.92.08 2.12.51.56.82 1.27.82 2.15 0 3.07-1.87 3.75-3.65 3.95.29.25.54.73.54 1.48 0 1.07-.01 1.93-.01 2.2 0 .21.15.46.55.38A8.013 8.013 0 0 0 16 8c0-4.42-3.58-8-8-8z"/>
  </symbol>
  <symbol id="hamburger" viewBox="0 0 20 14">
    <path d="M0 14v-2h20v2H0zm0-8h20v2H0V6zm0-6h20v2H0V0z"/>
  </symbol>
  <symbol id="heart" viewBox="0 0 124 113">
    <path d="M62 113l-8.68-8.6C21.08 76.152 0 57.114 0 33.777 0 14.739 14.88 0 34.1 0A37.405 37.405 0 0 1 62 12.9 37.405 37.405 0 0 1 89.9 0C109.12 0 124 14.739 124 33.777c0 23.337-21.08 42.375-53.32 70.625z"/>
  </symbol>
  <symbol id="maginifer" viewBox="0 0 17 17">
    <path d="M17 15.803L15.803 17l-3.655-3.656C10.866 14.365 9.265 15 7.5 15A7.5 7.5 0 1 1 15 7.5c0 1.765-.635 3.366-1.655 4.647L17 15.803zM7.5 2a5.5 5.5 0 1 0 0 11 5.5 5.5 0 1 0 0-11z"/>
  </symbol>
  <symbol id="chevron_down" viewBox="0 0 10 5">
    <path d="M5 5L0 1.072.683 0 5 3.391 9.317 0 10 1.072 5 5z"/>
  </symbol>
  <symbol id="chevron_left" viewBox="0 0 7.13 14">
    <path d="M0 7l5.598-7 1.528.956L2.293 7l4.833 6.043L5.598 14 0 7z"/>
  </symbol>
  <symbol id="chevron_right" viewBox="0 0 7.12 14">
    <path d="M7.12 7l-5.598 7-1.528-.957L4.827 7-.006.956 1.522 0 7.12 7z"/>
  </symbol>
  <symbol id="chevron_up" viewBox="0 0 10 5">
    <path d="M5 0l5 3.928L9.317 5 5 1.609.683 5 0 3.928 5 0z"/>
  </symbol>
  <symbol id="landing_bem" viewBox="0 0 44 33">
    <path d="M26 33v-2h18v2H26zm-6-2H0V0h10v10h10c4 0 6 2.093 6 6l-.009 8.95C25.991 28.9 24 31 20 31zm4-15a3.819 3.819 0 0 0-4-4H8V2H2v27h18a4.324 4.324 0 0 0 4-4v-9z"/>
  </symbol>
  <symbol id="landing_cube" viewBox="0 0 40 47">
    <path d="M39.536 35.652L20.547 46.837c-.018.012-.041.007-.059.018a.894.894 0 0 1-.979 0c-.019-.011-.041-.006-.059-.018L.461 35.652a1 1 0 0 1-.451-.834V12.136a.985.985 0 0 1 .752-.95L19.45.163a1 1 0 0 1 1.1 0l18.394 10.849c.016 0 .03-.009.046-.009a1 1 0 0 1 1 1v22.815a1 1 0 0 1-.454.834zM21 44.223l16.99-9.944v-19.73L20.9 24.626l.094.41v19.187zM2.011 34.279L19 44.223V25.036l.094-.41L2.01 14.549v19.73zM20 2.2L2.418 12.5 20 22.8l17.583-10.3z"/>
  </symbol>
  <symbol id="landing_documentation" viewBox="0 0 37 48">
    <path d="M36.007 48H4.134a4.1 4.1 0 0 1-4.133-4.07V4.07A4.1 4.1 0 0 1 4.134 0h31.873a1 1 0 0 1 1 1v46a1 1 0 0 1-1 1zm-30-46H4.139a2.106 2.106 0 0 0-2.133 2.07v39.86A2.106 2.106 0 0 0 4.139 46H6V2zm29.087 0H8v44h27.087V2zM30 15H13v-2h17v2zm0 3H13v-2h17v2z"/>
  </symbol>
  <symbol id="landing_gear" viewBox="0 0 48 48">
    <path d="M47.15 27.91l-5.464.84a17.952 17.952 0 0 1-1.8 4.35l3.332 4.37a1 1 0 0 1-.086 1.31l-4.229 4.26a1.006 1.006 0 0 1-1.3.1l-4.457-3.28a18.233 18.233 0 0 1-4.363 1.81l-.722 5.44a1 1 0 0 1-.987.87l-5.992.02a1 1 0 0 1-.988-.85l-.835-5.46a18.147 18.147 0 0 1-4.335-1.78l-4.389 3.31a1 1 0 0 1-1.307-.08l-4.261-4.23a1 1 0 0 1-.1-1.3l3.253-4.46a18 18 0 0 1-1.834-4.42l-5.38-.67a1 1 0 0 1-.877-.99L0 21.08a1 1 0 0 1 .851-.99l5.453-.82a18.122 18.122 0 0 1 1.852-4.42l-3.37-4.31a1 1 0 0 1 .079-1.32l4.23-4.26a1.011 1.011 0 0 1 1.315-.09l4.41 3.36a17.731 17.731 0 0 1 4.4-1.83l.71-5.51a.994.994 0 0 1 .988-.87l6-.02a1 1 0 0 1 .989.86l.8 5.53a18.045 18.045 0 0 1 4.313 1.77l4.439-3.38a1 1 0 0 1 1.31.08l4.258 4.23a1 1 0 0 1 .093 1.31l-3.328 4.43a17.981 17.981 0 0 1 1.854 4.4l5.453.71a1 1 0 0 1 .87.99l.019 5.99a1 1 0 0 1-.838.99zm-1.168-6.1l-5.259-.69a.994.994 0 0 1-.843-.76 16.061 16.061 0 0 0-2.128-5.05 1 1 0 0 1 .044-1.14l3.212-4.27-3.021-3-4.283 3.26a1 1 0 0 1-1.131.05 16.252 16.252 0 0 0-4.968-2.03 1.019 1.019 0 0 1-.769-.84L26.058 2l-4.255.01-.685 5.32a.994.994 0 0 1-.77.85 16.143 16.143 0 0 0-5.058 2.1 1.009 1.009 0 0 1-1.139-.05L9.898 6.99 6.907 10l3.253 4.16a1.01 1.01 0 0 1 .055 1.16 16.119 16.119 0 0 0-2.128 5.06 1.017 1.017 0 0 1-.825.77l-5.257.79.015 4.25 5.191.64a1 1 0 0 1 .852.77 16.019 16.019 0 0 0 2.1 5.07 1.013 1.013 0 0 1-.039 1.13l-3.139 4.29 3.036 3.02 4.233-3.2a1.026 1.026 0 0 1 .6-.2 1 1 0 0 1 .527.15 16.316 16.316 0 0 0 4.982 2.05.989.989 0 0 1 .767.82l.807 5.27 4.257-.02.7-5.24a1.01 1.01 0 0 1 .768-.85 15.888 15.888 0 0 0 5.01-2.08 1 1 0 0 1 1.125.04l4.3 3.17 3.007-3.03-3.215-4.22a.99.99 0 0 1-.052-1.13 16.079 16.079 0 0 0 2.064-4.99 1 1 0 0 1 .823-.77l5.272-.81zm-22.08 12.16a10 10 0 1 1 10-10 10.007 10.007 0 0 1-10.002 10zm0-18a8 8 0 1 0 8 8 8.01 8.01 0 0 0-8.002-8z"/>
  </symbol>
  <symbol id="landing_module" viewBox="0 0 49 37">
    <path d="M48 25a1 1 0 0 1 0 2h-5v3h5a1 1 0 0 1 0 2h-5v5H6v-5H1a1 1 0 0 1 0-2h5v-3H1a1 1 0 0 1 0-2h5v-3H1a1 1 0 0 1 0-2h5v-3H1a1 1 0 0 1 0-2h5v-3H1a1 1 0 0 1 0-2h5V7H1a1 1 0 0 1 0-2h5V0h37v5h5a1 1 0 0 1 0 2h-5v3h5a1 1 0 0 1 0 2h-5v3h5a1 1 0 0 1 0 2h-5v3h5a1 1 0 0 1 0 2h-5v3h5zM41 2H8v33h33V2zM29.706 7l-3.9 10.059h5.206L19.294 30l3.9-10.058h-5.206z"/>
  </symbol>
  <symbol id="landing_phone" viewBox="0 0 26 48">
    <path d="M22 48H4a4.036 4.036 0 0 1-4-4.07V4.07A4.036 4.036 0 0 1 4 0h18a4.036 4.036 0 0 1 4 4.07v39.86A4.036 4.036 0 0 1 22 48zm2-43.93A2.04 2.04 0 0 0 22 2H4a2.039 2.039 0 0 0-2 2.07v39.86A2.039 2.039 0 0 0 4 46h18a2.04 2.04 0 0 0 2-2.07V4.07zM16 7h-6a1 1 0 0 1 0-2h6a1 1 0 0 1 0 2zm-3 33a2 2 0 1 1-2 2 2 2 0 0 1 2-2z"/>
  </symbol>
  <symbol id="landing_picture" viewBox="0 0 48 38">
    <path d="M44.907 38H3.09A3.089 3.089 0 0 1 0 35V3a3.089 3.089 0 0 1 3.09-3h41.817A3.092 3.092 0 0 1 48 3v32a3.092 3.092 0 0 1-3.093 3zM46 3a1.088 1.088 0 0 0-1.093-1H3.09A1.084 1.084 0 0 0 2 3v22.05l12.384-10.81a1 1 0 0 1 1.357.05l11.338 11.39 7.274-5.48a.993.993 0 0 1 1.31.1L46 30.94V3zm0 30.81L34.848 22.33l-7.266 5.47a.992.992 0 0 1-1.3-.09L14.991 16.37 2 27.71V35a1.084 1.084 0 0 0 1.09 1h41.817A1.088 1.088 0 0 0 46 35v-1.19zM31.963 12a2.987 2.987 0 1 1 2.991 3 3 3 0 0 1-2.991-3zm3.983 0a1 1 0 1 0-.992 1 1 1 0 0 0 .992-1z"/>
  </symbol>
  <symbol id="landing_text-file" viewBox="0 0 36 47.94">
    <path d="M35.98 14.09v31.83a2.027 2.027 0 0 1-2.024 2.02H2.036a2.036 2.036 0 0 1-2.037-2.03V2.05A2.036 2.036 0 0 1 2.036.02h19.952c.045 0 .083.02.126.02l.131.03a.943.943 0 0 1 .45.24l12.884 12.87a.58.58 0 0 1 .076.09.453.453 0 0 1 .077.08.976.976 0 0 1 .268.64.588.588 0 0 1-.02.1zM22.987 3.43V13h9.581zM34 14.94H22a.964.964 0 0 1-1.012-.95V1.94H2v43.97l32 .03v-31zm-27-2h9a1 1 0 0 1 0 2H7a1 1 0 0 1 0-2zm0 8h5a1 1 0 0 1 0 2H7a1 1 0 0 1 0-2zm.71 7.29a1 1 0 1 1-1.71.71 1.033 1.033 0 0 1 .29-.71 1.047 1.047 0 0 1 1.42 0zM7 34.94h17a1 1 0 0 1 0 2H7a1 1 0 0 1 0-2zm22.71.29a1.014 1.014 0 0 1 0 1.42 1.033 1.033 0 0 1-.71.29.99.99 0 0 1-.71-.29 1.004 1.004 0 0 1 1.42-1.42zm-.21-5.29h-5a1.25 1.25 0 0 1 0-2h5a1.25 1.25 0 0 1 0 2zm-.5-7h-7a1 1 0 0 1 0-2h7a1 1 0 0 1 0 2zm-6 6a1 1 0 0 1-1 1H12a1 1 0 0 1 0-2h10a1 1 0 0 1 1 1zm-6-6a.99.99 0 1 1 .71-.29 1.052 1.052 0 0 1-.71.29z"/>
  </symbol>
  <symbol id="landing_vector" viewBox="0 0 47.688 47.81">
    <path d="M46.954 31.29a2.478 2.478 0 0 1-3.513 0 2.518 2.518 0 0 1-.551-2.68l-4.688-4.74c1.179 5.11.374 11.66-2.445 15.5l1.7 1.71a1 1 0 0 1 0 1.41l-4.966 5.01a.977.977 0 0 1-1.409 0l-4.966-5.01a1 1 0 0 1 0-1.41l4.966-5.01a1.013 1.013 0 0 1 1.409 0l1.843 1.86c3.216-4.71 3.2-14.32-.082-18.01l-1.761 1.78a.977.977 0 0 1-1.409 0l-4.966-5.01a1 1 0 0 1 0-1.41l1.77-1.79C24.17 10.08 14.711 9.96 9.86 14.5l1.772 1.78a1 1 0 0 1 0 1.41L6.666 22.7a.977.977 0 0 1-1.409 0L.291 17.69a1 1 0 0 1 0-1.41l4.966-5.01a1.013 1.013 0 0 1 1.409 0l1.793 1.81c3.968-3.75 10.468-4.73 15.509-3.57L19.28 4.77a2.5 2.5 0 0 1-.9.18 2.441 2.441 0 0 1-1.758-.74 2.491 2.491 0 1 1 4.065-.85l8.618 8.7 1.779-1.79a1.013 1.013 0 0 1 1.409 0l4.966 5.01a1 1 0 0 1 0 1.41l-1.787 1.8 8.634 8.72a2.484 2.484 0 0 1 2.648 4.08zm-15.166 6.9l-3.565 3.6 3.565 3.6 3.566-3.6zM5.963 13.39l-3.565 3.6 3.565 3.6 3.566-3.6zm25.825-1.01l-3.565 3.6 3.565 3.6 3.566-3.6z"/>
  </symbol>
  <symbol id="player_next" viewBox="0 0 24 24">
    <path d="M6 18l8.5-6L6 6v12zM16 6v12h2V6h-2z"/>
  </symbol>
  <symbol id="player_pause" viewBox="0 0 24 24">
    <path d="M6 19h4V5H6v14zm8-14v14h4V5h-4z"/>
  </symbol>
  <symbol id="player_play" viewBox="0 0 24 24">
    <path d="M8 5v14l11-7z"/>
  </symbol>
  <symbol id="player_previous" viewBox="0 0 24 24">
    <path d="M6 6h2v12H6zm3.5 6l8.5 6V6z"/>
  </symbol>
  <symbol id="social_facebook" viewBox="0 0 8 17">
    <path d="M6.033 2.924h1.922V.011L5.308 0C2.368 0 1.7 2.175 1.7 3.563v1.942H0v3h1.7V17h3.574V8.506h2.413l.313-3H5.274V3.741c0-.663.446-.818.759-.818z" clip-rule="evenodd"/>
  </symbol>
  <symbol id="social_google-plus" viewBox="0 0 20 16">
    <path d="M12.993 1.981C11.52.774 9.713-.085 7.79.007 3.777-.131.088 3.478.02 7.6c-.256 3.368 1.901 6.673 4.947 7.864 3.035 1.2 6.926.382 8.863-2.418 1.13-1.561 1.477-3.52 1.44-5.429l.187.002.9.01c.007.631.007 1.263.013 1.895h1.806l.005-.961.007-.937 1.005-.01L20 7.61V5.72l-.854-.005-.958-.007c-.006-.62-.01-1.242-.012-1.863V3.81h-1.803v.006c-.006.63-.012 1.26-.016 1.892-.605.003-1.208.007-1.811.013v1.137c-2.255-.014-4.505-.01-6.756-.003-.004.909 0 1.818.004 2.727.904.03 1.81.034 2.715.037.58.002 1.16.004 1.74.013-.654 3.38-5.132 4.476-7.501 2.268-2.436-1.936-2.321-6.183.212-7.982 1.77-1.451 4.288-1.093 6.058.164a28.268 28.268 0 0 0 1.975-2.101z"/>
  </symbol>
  <symbol id="social_instagram" viewBox="0 0 18 18">
    <path d="M12.937 3.883a1.145 1.145 0 0 0 2.292 0c0-.632-.513-1.144-1.146-1.144-.633 0-1.146.512-1.146 1.144zM5.805 8.967a3.179 3.179 0 0 1 3.182-3.175 3.179 3.179 0 0 1 3.182 3.175 3.179 3.179 0 0 1-3.182 3.175 3.179 3.179 0 0 1-3.182-3.175zm3.182 4.891a4.897 4.897 0 0 1-4.902-4.89 4.897 4.897 0 0 1 4.902-4.892 4.897 4.897 0 0 1 4.902 4.891 4.897 4.897 0 0 1-4.902 4.891zm7.75-12.595a3.401 3.401 0 0 0-1.262-.821c-.387-.15-.969-.33-2.039-.378C12.278.011 11.931 0 9 0S5.722.011 4.564.064c-1.07.049-1.652.228-2.039.378-.512.2-.878.437-1.262.821-.384.384-.622.75-.821 1.262-.15.387-.33.969-.378 2.039C.011 5.722 0 6.069 0 9s.011 3.278.064 4.436c.049 1.07.228 1.652.378 2.039.2.512.437.878.821 1.262a3.4 3.4 0 0 0 1.262.821c.387.15.969.33 2.039.378C5.72 17.989 6.069 18 9 18s3.279-.011 4.436-.064c1.07-.049 1.652-.228 2.039-.378a3.4 3.4 0 0 0 1.262-.821c.384-.384.622-.75.821-1.262.15-.387.33-.969.378-2.039C17.989 12.278 18 11.931 18 9s-.011-3.278-.064-4.436c-.049-1.07-.228-1.652-.378-2.039a3.402 3.402 0 0 0-.821-1.262z" clip-rule="evenodd"/>
  </symbol>
  <symbol id="social_odnoklassniki" viewBox="0 0 12 18">
    <path d="M10.675 3.546c.659 2.688-1.391 4.857-3.627 5.326-5.935 1.25-8.496-7.04-2.164-8.709 2.903-.764 5.274 1.287 5.79 3.383zm-2.403.416A2.343 2.343 0 0 0 5.4 2.383c-3.08.802-1.795 4.998 1.205 4.247 1.057-.264 2.04-1.358 1.667-2.668z" clip-rule="evenodd"/><path d="M2.76 9.63c1.99 1.055 4.597 1.034 6.561-.049a4.22 4.22 0 0 0 .305-.19c.307-.203.623-.412 1.103-.39.857.045 2.589 1.412-.458 2.838-1.11.519-1.517.596-2.048.698-.27.051-.572.109-1.013.233.166.305 1.514 1.499 2.485 2.36.346.306.645.57.825.737 1.135 1.05.169 2.244-.996 2.125-.74-.077-3.06-2.363-3.482-2.833-.42.195-.984.748-1.562 1.314-.72.706-1.462 1.433-1.971 1.51-1.21.182-2.22-1.097-.99-2.202l3.271-2.99c-.174-.086-.56-.161-.937-.235-.264-.052-.523-.103-.701-.155-4.768-1.42-3.07-3.52-1.703-3.395.358.034.69.243.99.432.112.07.22.138.321.192z"/>
  </symbol>
  <symbol id="social_telegram" viewBox="0 0 20 17">
    <path d="M10.654 13.323c-.768.757-1.528 1.501-2.282 2.252-.263.263-.56.407-.937.387-.257-.014-.402-.13-.48-.378-.577-1.814-1.163-3.625-1.737-5.44-.056-.177-.14-.262-.315-.317-1.36-.42-2.716-.85-4.071-1.286a2.3 2.3 0 0 1-.578-.265c-.303-.203-.346-.527-.07-.762.256-.216.56-.397.87-.522C2.77 6.304 4.498 5.638 6.22 4.964L18.656.101c.795-.311 1.412.12 1.338.988-.05.572-.196 1.137-.314 1.702-.919 4.398-1.84 8.794-2.762 13.191l-.004.026c-.225 1.006-.947 1.28-1.769.668-1.428-1.065-2.852-2.134-4.278-3.201-.067-.05-.137-.098-.213-.152zm-3.155 1.385c.022-.104.037-.151.042-.2.09-.989.185-1.977.265-2.967a.738.738 0 0 1 .25-.534c2.164-1.968 4.321-3.943 6.48-5.917.614-.561 1.23-1.12 1.839-1.688.064-.06.078-.174.115-.263-.094-.027-.2-.095-.28-.072a2.027 2.027 0 0 0-.535.23C12.465 5.343 9.26 7.395 6.051 9.44c-.164.104-.21.19-.145.389.509 1.546 1.002 3.098 1.5 4.648.02.061.048.12.093.23z" clip-rule="evenodd"/>
  </symbol>
  <symbol id="social_twitter" viewBox="0 0 19 15">
    <path d="M0 13.298A11.261 11.261 0 0 0 5.976 15c7.17 0 11.09-5.771 11.09-10.776 0-.164-.003-.326-.01-.488A7.784 7.784 0 0 0 19 1.776a7.884 7.884 0 0 1-2.238.594A3.818 3.818 0 0 0 18.476.277 7.97 7.97 0 0 1 16 1.194 3.95 3.95 0 0 0 13.155 0c-2.153 0-3.9 1.694-3.9 3.785 0 .298.036.586.102.863A11.171 11.171 0 0 1 1.323.692a3.692 3.692 0 0 0-.528 1.904c0 1.313.688 2.473 1.734 3.152a3.943 3.943 0 0 1-1.766-.474v.048c0 1.834 1.345 3.366 3.126 3.714a3.97 3.97 0 0 1-1.026.132c-.251 0-.496-.023-.733-.068.495 1.506 1.935 2.6 3.64 2.63a7.957 7.957 0 0 1-4.84 1.62 7.82 7.82 0 0 1-.93-.052z" clip-rule="evenodd"/>
  </symbol>
  <symbol id="social_viber" viewBox="0 0 20 21">
    <path d="M18.462 15.197a28.867 28.867 0 0 0-1.601-1.207l-.34-.245c-1.306-.943-2.5-1.016-3.473.502-.547.852-1.313.89-2.113.515-2.207-1.03-3.911-2.617-4.91-4.926-.44-1.021-.435-1.937.598-2.66.547-.382 1.098-.834 1.054-1.669C7.62 4.42 5.052.781 4.037.397c-.419-.16-.836-.15-1.263-.001C.396 1.219-.59 3.232.354 5.615c2.814 7.11 7.766 12.06 14.582 15.082.283.126.59.196.82.25.085.019.16.036.219.053 1.552.016 3.37-1.523 3.894-3.05.445-1.292-.327-1.9-1.094-2.503a15.931 15.931 0 0 1-.313-.25zM10.82 1.126c4.982.788 7.28 3.228 7.915 8.394.013.104.015.22.016.336.007.42.014.862.531.873.578.01.557-.481.538-.922a4.532 4.532 0 0 1-.007-.25C19.872 4.691 15.75.18 10.963.014c-.085.012-.19.005-.304-.003-.37-.026-.815-.058-.85.58-.026.45.374.48.746.508.092.007.182.014.264.027z"/><path d="M11.794 2.542c-.072-.009-.148-.022-.225-.035-.433-.074-.904-.154-1 .428-.094.582.35.645.764.703.097.014.192.027.278.047 3.078.708 4.15 1.861 4.656 5.004.015.09.02.192.027.294.024.414.05.853.657.759.423-.067.411-.432.4-.76a1.893 1.893 0 0 1 .005-.296c.024-3.018-2.487-5.764-5.562-6.144z"/><path d="M11.325 5.405c.118-.352.432-.388.751-.396 1.365-.035 2.963 1.648 2.94 3.104.015.398-.027.818-.484.874-.33.04-.547-.245-.58-.597-.127-1.296-.791-2.062-2.054-2.27-.378-.063-.75-.189-.573-.715z"/>
  </symbol>
  <symbol id="social_vkontakte" viewBox="0 0 24 13">
    <path d="M11.742 12.945h1.435s.433-.045.654-.27c.205-.21.198-.6.198-.6s-.028-1.827.865-2.096c.88-.266 2.012 1.766 3.21 2.547.907.591 1.596.462 1.596.462l3.205-.043s1.676-.098.881-1.349c-.065-.102-.463-.926-2.383-2.618-2.01-1.771-1.74-1.485.68-4.549 1.474-1.865 2.064-3.004 1.88-3.492-.176-.465-1.26-.342-1.26-.342l-3.61.021s-.267-.034-.465.078c-.193.11-.318.368-.318.368s-.572 1.443-1.333 2.671c-1.607 2.591-2.25 2.728-2.513 2.567-.61-.375-.458-1.505-.458-2.31 0-2.51.402-3.557-.78-3.828-.393-.09-.682-.15-1.685-.159-1.287-.013-2.377.003-2.994.29-.411.191-.728.617-.535.641.238.03.779.138 1.065.508.37.478.357 1.551.357 1.551s.213 2.955-.496 3.323c-.487.251-1.154-.262-2.587-2.613-.734-1.204-1.288-2.535-1.288-2.535S4.956.92 4.766.786C4.534.625 4.212.574 4.212.574L.781.595S.268.61.079.821c-.169.19-.014.58-.014.58s2.685 5.964 5.724 8.97c2.788 2.755 5.954 2.574 5.954 2.574z" clip-rule="evenodd"/>
  </symbol>
  <symbol id="social_whatsapp" viewBox="0 0 22 22">
    <path d="M7.926 5.587c-.213-.51-.375-.53-.698-.543a6.234 6.234 0 0 0-.369-.013c-.42 0-.86.123-1.125.395-.323.33-1.125 1.1-1.125 2.677 0 1.578 1.15 3.104 1.306 3.318.162.213 2.244 3.498 5.476 4.837 2.528 1.048 3.278.95 3.853.828.84-.181 1.894-.802 2.16-1.552.265-.75.265-1.39.187-1.527-.078-.135-.291-.213-.614-.375-.323-.161-1.894-.937-2.192-1.04-.29-.11-.569-.072-.788.239-.31.433-.614.873-.86 1.138-.194.207-.511.233-.776.123-.356-.149-1.351-.498-2.58-1.591-.95-.847-1.596-1.901-1.784-2.218-.187-.323-.02-.511.13-.685.161-.201.316-.343.478-.53.162-.188.252-.285.355-.505.11-.214.033-.434-.045-.595-.078-.162-.724-1.74-.99-2.38zM10.996 0C4.934 0 0 4.934 0 11c0 2.405.776 4.636 2.095 6.447L.724 21.534l4.228-1.351A10.913 10.913 0 0 0 11.003 22C17.067 22 22 17.066 22 11S17.067 0 11.003 0h-.006z" clip-rule="evenodd"/>
  </symbol>
  <symbol id="social_youtube" viewBox="0 0 20 14">
    <path d="M7.935 9.582V3.989l5.403 2.806-5.403 2.787zM19.8 3.02s-.196-1.372-.795-1.976c-.76-.793-1.613-.796-2.004-.842C14.202 0 10.004 0 10.004 0h-.008S5.797 0 2.999.202c-.392.046-1.243.05-2.005.842C.395 1.648.2 3.02.2 3.02S0 4.631 0 6.24v1.51c0 1.612.2 3.222.2 3.222s.195 1.372.794 1.976c.762.793 1.761.768 2.206.85C4.8 13.954 10 14 10 14s4.203-.006 7.001-.208c.39-.046 1.243-.05 2.004-.843.6-.604.795-1.976.795-1.976s.2-1.61.2-3.221v-1.51c0-1.611-.2-3.222-.2-3.222z" clip-rule="evenodd"/>
  </symbol>
</svg>