<svg xmlns="http://www.w3.org/2000/svg" class="icons-sprite">
  <symbol id="add" viewBox="0 0 16 16">
    <path d="M8 0a8 8 0 1 0 0 16A8 8 0 0 0 8 0zm4 9H9v3H7V9H4V7h3V4h2v3h3v2z"/>
  </symbol>
  <symbol id="button" viewBox="0 0 19 19">
    <path d="M9.5 0A9.5 9.5 0 1 1 0 9.5 9.5 9.5 0 0 1 9.5 0zM7 6l6 3v1l-6 3V6z"/>
  </symbol>
  <symbol id="chevron-down" viewBox="0 0 10 5" preserveAspectRatio="xMidYMid" >
    <path d="M5 5L0 1.072.683 0 5 3.391 9.317 0 10 1.072 5 5z"/>
  </symbol>
  <symbol id="chevron-left" viewBox="0 0 7.13 14" preserveAspectRatio="xMidYMid" >
    <path d="M0 7l5.598-7 1.528.956L2.293 7l4.833 6.043L5.598 14 0 7z"/>
  </symbol>
  <symbol id="chevron-right" viewBox="0 0 7.12 14" preserveAspectRatio="xMidYMid" >
    <path d="M7.12 7l-5.598 7-1.528-.957L4.827 7-.006.956 1.522 0 7.12 7z"/>
  </symbol>
  <symbol id="chevron-up" viewBox="0 0 10 5" preserveAspectRatio="xMidYMid" >
    <path d="M5 0l5 3.928L9.317 5 5 1.609.683 5 0 3.928 5 0z"/>
  </symbol>
  <symbol id="close" viewBox="0 0 16 16" preserveAspectRatio="xMidYMid" >
    <path d="M16 14.546L14.545 16 8 9.455 1.455 16 0 14.546 6.545 8 0 1.455 1.455 0 8 6.546 14.545 0 16 1.455 9.454 8 16 14.546z"/>
  </symbol>
  <symbol id="cursor" viewBox="0 0 128 112">
    <path d="M87.412 24.886H0v62.226h87.412V24.886zM74.924 74.667H12.488V37.331h62.436v37.336zM128 12.441V0H84.293v12.441H99.9v87.116H84.293V112H128V99.557h-15.61V12.441H128z"/>
  </symbol>
  <symbol id="fb" viewBox="0 0 18 18">
    <path d="M16.2 0H1.8A1.793 1.793 0 0 0 0 1.8v14.4A1.793 1.793 0 0 0 1.8 18h14.4a1.793 1.793 0 0 0 1.8-1.8V1.8A1.793 1.793 0 0 0 16.2 0zm-.9 1.8v2.7h-1.8a.9.9 0 0 0-.9.9v1.8h2.7v2.7h-2.7v6.3H9.9V9.9H8.1V7.2h1.8V4.9a3.138 3.138 0 0 1 3.2-3.1h2.2z"/>
  </symbol>
  <symbol id="github-octocat" viewBox="0 0 16 15.969">
    <path d="M8 0a8.228 8.228 0 0 0-2.53 15.977.407.407 0 0 0 .55-.389c0-.195-.01-.84-.01-1.527-2.01.379-2.53-.5-2.69-.963a2.982 2.982 0 0 0-.82-1.158c-.28-.154-.68-.533-.01-.543a1.6 1.6 0 0 1 1.23.84 1.686 1.686 0 0 0 2.33.676 1.741 1.741 0 0 1 .51-1.1c-1.78-.2-3.64-.912-3.64-4.048a3.236 3.236 0 0 1 .82-2.2 3.014 3.014 0 0 1 .08-2.173s.67-.215 2.2.84a7.366 7.366 0 0 1 4 0c1.53-1.066 2.2-.84 2.2-.84a3.014 3.014 0 0 1 .08 2.173 3.217 3.217 0 0 1 .82 2.2c0 3.146-1.87 3.843-3.65 4.048a1.968 1.968 0 0 1 .54 1.517c0 1.1-.01 1.978-.01 2.255a.4.4 0 0 0 .55.389A8.2 8.2 0 0 0 16 8.2 8.1 8.1 0 0 0 8 0z"/>
  </symbol>
  <symbol id="gp" viewBox="0 0 18 18">
    <path d="M8.3 6.2c0-.9-.5-2.7-1.9-2.7A1.256 1.256 0 0 0 5.2 5c0 1.1.5 2.6 1.8 2.6a1.232 1.232 0 0 0 1.3-1.4zm-.6 4.4h-.2a5.5 5.5 0 0 0-1.6.3 1.608 1.608 0 0 0-1.3 1.5c0 1 .9 2 2.7 2a1.976 1.976 0 0 0 2.2-1.8c-.1-.6-.6-1.1-1.8-2zM16.2 0H1.8A1.793 1.793 0 0 0 0 1.8v14.4A1.793 1.793 0 0 0 1.8 18h14.4a1.793 1.793 0 0 0 1.8-1.8V1.8A1.793 1.793 0 0 0 16.2 0zM6.4 15.5c-2.5 0-3.7-1.4-3.7-2.7a2.537 2.537 0 0 1 1.4-2.2 5.466 5.466 0 0 1 2.8-.8 1.078 1.078 0 0 1-.3-.9.9.9 0 0 1 .1-.5h-.4a2.739 2.739 0 0 1-2.9-2.7c0-1.5 1.2-3.2 3.7-3.2h3.8l-.3.3-.6.6-.1.1h-.6a2.666 2.666 0 0 1 .8 2 2.545 2.545 0 0 1-1.4 2.4.842.842 0 0 0-.4.7.538.538 0 0 0 .4.5c.1.1.3.2.4.3a3.164 3.164 0 0 1 1.7 2.6c0 1.6-1.2 3.5-4.4 3.5zM15.3 9h-1.8v1.8h-.9V9h-1.8v-.9h1.8V6.3h.9v1.8h1.8V9z"/>
  </symbol>
  <symbol id="hamburger" viewBox="0 0 20 14" preserveAspectRatio="xMidYMid" >
    <path d="M0 14v-2h20v2H0zm0-8h20v2H0V6zm0-6h20v2H0V0z"/>
  </symbol>
  <symbol id="heart" viewBox="0 0 124 113">
    <path d="M62 113l-8.68-8.6C21.08 76.152 0 57.114 0 33.777 0 14.739 14.88 0 34.1 0A37.405 37.405 0 0 1 62 12.9 37.405 37.405 0 0 1 89.9 0C109.12 0 124 14.739 124 33.777c0 23.337-21.08 42.375-53.32 70.625z"/>
  </symbol>
  <symbol id="input" viewBox="0 0 41 41">
    <path d="M27.999 10.5H0v20h27.999v-20zm-4 16H4v-12h19.999v12zM41 6.5v-4H27v4h5v28h-5v4h14v-4h-5v-28h5z"/>
  </symbol>
  <symbol id="maginifer" viewBox="0 0 17 17" preserveAspectRatio="xMidYMid" >
    <path d="M17 15.803L15.803 17l-3.655-3.656C10.866 14.365 9.265 15 7.5 15A7.5 7.5 0 1 1 15 7.5c0 1.765-.635 3.366-1.655 4.647L17 15.803zM7.5 2a5.5 5.5 0 1 0 0 11 5.5 5.5 0 1 0 0-11z"/>
  </symbol>
  <symbol id="mr" viewBox="0 0 18 18">
    <path d="M8.8 6.5a2.419 2.419 0 0 0-2.4 2.6 2.263 2.263 0 0 0 2.3 2.5 2.456 2.456 0 0 0 2.5-2.4v-.3a2.309 2.309 0 0 0-2.4-2.4zM16.2 0H1.8A1.793 1.793 0 0 0 0 1.8v14.4A1.793 1.793 0 0 0 1.8 18h14.4a1.793 1.793 0 0 0 1.8-1.8V1.8A1.793 1.793 0 0 0 16.2 0zm-2.4 13.4a1.566 1.566 0 0 1-2.5-1.2v-.4A3.338 3.338 0 0 1 8.8 13a3.905 3.905 0 0 1 0-7.8 3.733 3.733 0 0 1 2.6 1.2.56.56 0 0 1 .5-.6h.1a.619.619 0 0 1 .6.6v5.4c0 .4.3.5.6.3.8-.9 1.8-4.6-.5-6.7A5.34 5.34 0 0 0 6 4.9a5.17 5.17 0 0 0-1.7 6.2 4.965 4.965 0 0 0 6.2 2.7c1-.4 1.4 1 .4 1.4a6.511 6.511 0 0 1-7.7-3 6.6 6.6 0 0 1 2.3-8.7 6.674 6.674 0 0 1 8.4 1.1c2.3 2.4 2.1 7-.1 8.8z"/>
  </symbol>
  <symbol id="ok" viewBox="0 0 18 18">
    <path d="M16.2 0H1.8A1.793 1.793 0 0 0 0 1.8v14.4A1.793 1.793 0 0 0 1.8 18h14.4a1.793 1.793 0 0 0 1.8-1.8V1.8A1.793 1.793 0 0 0 16.2 0zM9 2.5a3.483 3.483 0 0 1 3.4 3.6 3.543 3.543 0 0 1-3.5 3.5A3.529 3.529 0 0 1 5.6 6 3.337 3.337 0 0 1 9 2.5zm3.9 8.4a3.956 3.956 0 0 1-1.5 1 8.469 8.469 0 0 1-1.7.4l.2.2 2.4 2.4a.8.8 0 0 1 .2.9 1.149 1.149 0 0 1-.9.6.864.864 0 0 1-.6-.3l-1.8-1.8a.231.231 0 0 0-.4 0c-.6.6-1.2 1.2-1.8 1.9a.8.8 0 0 1-.9.2.874.874 0 0 1-.5-.9.864.864 0 0 1 .3-.6c.8-.8 1.6-1.6 2.3-2.4l.2-.2a5.257 5.257 0 0 1-2.8-1 .53.53 0 0 0-.3-.2.817.817 0 0 1-.1-1.2c.2-.4.6-.4 1.1-.2a.349.349 0 0 1 .2.1 4.353 4.353 0 0 0 5.1 0c.2-.1.3-.2.5-.3a.7.7 0 0 1 .9.4.92.92 0 0 1-.1 1zM9 7.7A1.752 1.752 0 0 0 10.7 6 1.628 1.628 0 0 0 9 4.3 1.685 1.685 0 0 0 7.3 6 1.752 1.752 0 0 0 9 7.7z"/>
  </symbol>
  <symbol id="rss" viewBox="0 0 16 16" preserveAspectRatio="xMidYMid" >
    <path d="M15.751 16h-3.113a.248.248 0 0 1-.245-.247c0-6.704-5.448-12.158-12.146-12.158A.247.247 0 0 1 0 3.349V.248C0 .111.111 0 .247 0c8.651 0 15.696 7.023 15.739 15.676l.014.077a.25.25 0 0 1-.249.247zM.247 5.226c5.771 0 10.475 4.682 10.518 10.45l.012.077a.248.248 0 0 1-.248.246H7.506a.246.246 0 0 1-.246-.246c0-3.871-3.148-7.019-7.013-7.019A.248.248 0 0 1 0 8.487V5.474c0-.137.111-.248.247-.248zm2.125 6.028a2.375 2.375 0 0 1 2.372 2.374A2.376 2.376 0 0 1 2.372 16 2.376 2.376 0 0 1 0 13.628a2.375 2.375 0 0 1 2.372-2.374z"/>
  </symbol>
  <symbol id="text" viewBox="0 0 475.082 475.082">
    <path d="M473.371 433.11c-10.657-3.997-20.458-6.563-29.407-7.706-8.945-.767-15.516-2.95-19.701-6.567-2.475-1.529-5.808-6.95-9.996-16.279-7.806-15.604-13.989-29.786-18.555-42.537-7.427-20.181-13.617-35.789-18.565-46.829-10.845-25.311-19.982-47.678-27.401-67.092-4.001-10.466-15.797-38.731-35.405-84.796L255.813 24.265l-3.142-5.996h-36.543l-79.94 206.704-67.665 175.874c-5.33 9.896-9.9 16.372-13.706 19.417-3.996 2.848-14.466 5.805-31.405 8.843-11.042 2.102-18.654 3.812-22.841 5.141L0 456.812h5.996c16.37 0 32.264-1.334 47.679-3.997l13.706-2.279c53.868 3.806 87.082 5.708 99.642 5.708.381-1.902.571-4.476.571-7.706 0-5.715-.094-11.231-.287-16.563-3.996-.568-7.851-1.143-11.561-1.711-3.711-.575-6.567-1.047-8.565-1.431-1.997-.373-3.284-.568-3.855-.568-14.657-2.094-24.46-5.14-29.407-9.134-3.236-2.282-4.854-6.375-4.854-12.278 0-3.806 2.19-11.796 6.567-23.982 14.277-39.776 24.172-65.856 29.692-78.224l128.483.568 26.269 65.096 13.411 32.541c1.144 3.241 1.711 6.283 1.711 9.138s-1.14 5.428-3.426 7.707c-2.285 1.905-8.753 4.093-19.417 6.563l-37.404 7.994c-.763 6.283-1.136 13.702-1.136 22.271l16.56-.575 57.103-3.138c10.656-.38 23.51-.575 38.547-.575 18.264 0 36.251.763 53.957 2.282 21.313 1.523 39.588 2.283 54.819 2.283.192-2.283.281-4.754.281-7.423 0-3.422-.569-8.842-1.711-16.269zM251.245 270.941c-2.666 0-7.662-.052-14.989-.144-7.327-.089-18.649-.233-33.973-.425-15.321-.195-29.93-.383-43.824-.574l48.535-128.477c7.424 15.037 16.178 35.117 26.264 60.242 11.425 27.79 20.179 50.727 26.273 68.809l-8.286.569z"/>
  </symbol>
  <symbol id="tw" viewBox="0 0 18 18">
    <path d="M16.2 0H1.8A1.793 1.793 0 0 0 0 1.8v14.4A1.793 1.793 0 0 0 1.8 18h14.4a1.793 1.793 0 0 0 1.8-1.8V1.8A1.793 1.793 0 0 0 16.2 0zm-2.1 6.6c-.1 4.1-2.7 7-6.7 7.2a6.2 6.2 0 0 1-3.9-1.1 4.708 4.708 0 0 0 3.5-1A2.248 2.248 0 0 1 4.9 10a3.334 3.334 0 0 0 1 0A2.484 2.484 0 0 1 4 7.6a1.689 1.689 0 0 0 1 .3 2.7 2.7 0 0 1-.8-3.3 7.067 7.067 0 0 0 4.9 2.5c-.5-2.5 2.9-3.9 4.2-2.2a13.081 13.081 0 0 0 1.5-.5 2.209 2.209 0 0 1-1 1.3 6.468 6.468 0 0 0 1.3-.4 2.43 2.43 0 0 1-1 1.3z"/>
  </symbol>
  <symbol id="vk" viewBox="0 0 18 18">
    <path d="M16.2 0H1.8A1.793 1.793 0 0 0 0 1.8v14.4A1.793 1.793 0 0 0 1.8 18h14.4a1.793 1.793 0 0 0 1.8-1.8V1.8A1.793 1.793 0 0 0 16.2 0zm-2.5 10.4a15.933 15.933 0 0 1 1.3 1.3 4.233 4.233 0 0 1 .5.7.442.442 0 0 1-.3.7h-1.9a1.656 1.656 0 0 1-1.2-.5 6.034 6.034 0 0 0-.8-.8l-.3-.3a.349.349 0 0 0-.6.2 1.486 1.486 0 0 0-.2.9.53.53 0 0 1-.6.6 4.9 4.9 0 0 1-2.7-.6 5.814 5.814 0 0 1-1.8-1.7 22.1 22.1 0 0 1-2.6-4.4c-.1-.3 0-.5.4-.5h1.9a.42.42 0 0 1 .4.4 17.1 17.1 0 0 0 1.3 2.3 1.205 1.205 0 0 0 .5.5.288.288 0 0 0 .5-.1.9.9 0 0 0 .1-.5 9.652 9.652 0 0 0 0-1.7.85.85 0 0 0-.7-.7c-.1 0-.1-.1 0-.2a.6.6 0 0 1 .6-.3h2.2c.3.1.3.2.4.6v2.4a.864.864 0 0 0 .3.6c.2.1.3-.1.4-.2A6.15 6.15 0 0 0 12 7.2c.1-.3.3-.6.4-.9a.462.462 0 0 1 .5-.3h2.3c.3.1.4.2.3.5a6.376 6.376 0 0 1-.8 1.4 13.444 13.444 0 0 1-1.1 1.4.708.708 0 0 0 .1 1.1z"/>
  </symbol>
</svg>