<svg class="icons-sprite" xmlns="http://www.w3.org/2000/svg">
  <symbol id="close" viewBox="0 0 16 16">
    <path d="M16 14.546L14.545 16 8 9.455 1.455 16 0 14.546 6.545 8 0 1.455 1.455 0 8 6.546 14.545 0 16 1.455 9.454 8 16 14.546z"/>
  </symbol>
  <symbol id="github-octocat" viewBox="0 0 16 16">
    <path d="M8 0C3.58 0 0 3.58 0 8c0 3.54 2.29 6.53 5.47 7.59.4.07.55-.17.55-.38 0-.19-.01-.82-.01-1.49-2.01.37-2.53-.49-2.69-.94-.09-.23-.48-.94-.82-1.13-.28-.15-.68-.52-.01-.53.63-.01 1.08.58 1.23.82.72 1.21 1.87.87 2.33.66.07-.52.28-.87.51-1.07-1.78-.2-3.64-.89-3.64-3.95 0-.87.31-1.59.82-2.15-.08-.2-.36-1.02.08-2.12 0 0 .67-.21 2.2.82.64-.18 1.32-.27 2-.27.68 0 1.36.09 2 .27 1.53-1.04 2.2-.82 2.2-.82.44 1.1.16 1.92.08 2.12.51.56.82 1.27.82 2.15 0 3.07-1.87 3.75-3.65 3.95.29.25.54.73.54 1.48 0 1.07-.01 1.93-.01 2.2 0 .21.15.46.55.38A8.013 8.013 0 0 0 16 8c0-4.42-3.58-8-8-8z"/>
  </symbol>
  <symbol id="hamburger" viewBox="0 0 20 14">
    <path d="M0 14v-2h20v2H0zm0-8h20v2H0V6zm0-6h20v2H0V0z"/>
  </symbol>
  <symbol id="heart" viewBox="0 0 124 113">
    <path d="M62 113l-8.68-8.6C21.08 76.152 0 57.114 0 33.777 0 14.739 14.88 0 34.1 0A37.405 37.405 0 0 1 62 12.9 37.405 37.405 0 0 1 89.9 0C109.12 0 124 14.739 124 33.777c0 23.337-21.08 42.375-53.32 70.625z"/>
  </symbol>
  <symbol id="maginifer" viewBox="0 0 17 17">
    <path d="M17 15.803L15.803 17l-3.655-3.656C10.866 14.365 9.265 15 7.5 15A7.5 7.5 0 1 1 15 7.5c0 1.765-.635 3.366-1.655 4.647L17 15.803zM7.5 2a5.5 5.5 0 1 0 0 11 5.5 5.5 0 1 0 0-11z"/>
  </symbol>
  <symbol id="chevron_down" viewBox="0 0 10 5">
    <path d="M5 5L0 1.072.683 0 5 3.391 9.317 0 10 1.072 5 5z"/>
  </symbol>
  <symbol id="chevron_left" viewBox="0 0 7.13 14">
    <path d="M0 7l5.598-7 1.528.956L2.293 7l4.833 6.043L5.598 14 0 7z"/>
  </symbol>
  <symbol id="chevron_right" viewBox="0 0 7.12 14">
    <path d="M7.12 7l-5.598 7-1.528-.957L4.827 7-.006.956 1.522 0 7.12 7z"/>
  </symbol>
  <symbol id="chevron_up" viewBox="0 0 10 5">
    <path d="M5 0l5 3.928L9.317 5 5 1.609.683 5 0 3.928 5 0z"/>
  </symbol>
  <symbol id="landing_bem" viewBox="0 0 44 33">
    <path d="M26 33v-2h18v2H26zm-6-2H0V0h10v10h10c4 0 6 2.093 6 6l-.009 8.95C25.991 28.9 24 31 20 31zm4-15a3.819 3.819 0 0 0-4-4H8V2H2v27h18a4.324 4.324 0 0 0 4-4v-9z"/>
  </symbol>
  <symbol id="landing_cube" viewBox="0 0 40 47">
    <path d="M39.536 35.652L20.547 46.837c-.018.012-.041.007-.059.018a.894.894 0 0 1-.979 0c-.019-.011-.041-.006-.059-.018L.461 35.652a1 1 0 0 1-.451-.834V12.136a.985.985 0 0 1 .752-.95L19.45.163a1 1 0 0 1 1.1 0l18.394 10.849c.016 0 .03-.009.046-.009a1 1 0 0 1 1 1v22.815a1 1 0 0 1-.454.834zM21 44.223l16.99-9.944v-19.73L20.9 24.626l.094.41v19.187zM2.011 34.279L19 44.223V25.036l.094-.41L2.01 14.549v19.73zM20 2.2L2.418 12.5 20 22.8l17.583-10.3z"/>
  </symbol>
  <symbol id="landing_documentation" viewBox="0 0 37 48">
    <path d="M36.007 48H4.134a4.1 4.1 0 0 1-4.133-4.07V4.07A4.1 4.1 0 0 1 4.134 0h31.873a1 1 0 0 1 1 1v46a1 1 0 0 1-1 1zm-30-46H4.139a2.106 2.106 0 0 0-2.133 2.07v39.86A2.106 2.106 0 0 0 4.139 46H6V2zm29.087 0H8v44h27.087V2zM30 15H13v-2h17v2zm0 3H13v-2h17v2z"/>
  </symbol>
  <symbol id="landing_gear" viewBox="0 0 48 48">
    <path d="M47.15 27.91l-5.464.84a17.952 17.952 0 0 1-1.8 4.35l3.332 4.37a1 1 0 0 1-.086 1.31l-4.229 4.26a1.006 1.006 0 0 1-1.3.1l-4.457-3.28a18.233 18.233 0 0 1-4.363 1.81l-.722 5.44a1 1 0 0 1-.987.87l-5.992.02a1 1 0 0 1-.988-.85l-.835-5.46a18.147 18.147 0 0 1-4.335-1.78l-4.389 3.31a1 1 0 0 1-1.307-.08l-4.261-4.23a1 1 0 0 1-.1-1.3l3.253-4.46a18 18 0 0 1-1.834-4.42l-5.38-.67a1 1 0 0 1-.877-.99L0 21.08a1 1 0 0 1 .851-.99l5.453-.82a18.122 18.122 0 0 1 1.852-4.42l-3.37-4.31a1 1 0 0 1 .079-1.32l4.23-4.26a1.011 1.011 0 0 1 1.315-.09l4.41 3.36a17.731 17.731 0 0 1 4.4-1.83l.71-5.51a.994.994 0 0 1 .988-.87l6-.02a1 1 0 0 1 .989.86l.8 5.53a18.045 18.045 0 0 1 4.313 1.77l4.439-3.38a1 1 0 0 1 1.31.08l4.258 4.23a1 1 0 0 1 .093 1.31l-3.328 4.43a17.981 17.981 0 0 1 1.854 4.4l5.453.71a1 1 0 0 1 .87.99l.019 5.99a1 1 0 0 1-.838.99zm-1.168-6.1l-5.259-.69a.994.994 0 0 1-.843-.76 16.061 16.061 0 0 0-2.128-5.05 1 1 0 0 1 .044-1.14l3.212-4.27-3.021-3-4.283 3.26a1 1 0 0 1-1.131.05 16.252 16.252 0 0 0-4.968-2.03 1.019 1.019 0 0 1-.769-.84L26.058 2l-4.255.01-.685 5.32a.994.994 0 0 1-.77.85 16.143 16.143 0 0 0-5.058 2.1 1.009 1.009 0 0 1-1.139-.05L9.898 6.99 6.907 10l3.253 4.16a1.01 1.01 0 0 1 .055 1.16 16.119 16.119 0 0 0-2.128 5.06 1.017 1.017 0 0 1-.825.77l-5.257.79.015 4.25 5.191.64a1 1 0 0 1 .852.77 16.019 16.019 0 0 0 2.1 5.07 1.013 1.013 0 0 1-.039 1.13l-3.139 4.29 3.036 3.02 4.233-3.2a1.026 1.026 0 0 1 .6-.2 1 1 0 0 1 .527.15 16.316 16.316 0 0 0 4.982 2.05.989.989 0 0 1 .767.82l.807 5.27 4.257-.02.7-5.24a1.01 1.01 0 0 1 .768-.85 15.888 15.888 0 0 0 5.01-2.08 1 1 0 0 1 1.125.04l4.3 3.17 3.007-3.03-3.215-4.22a.99.99 0 0 1-.052-1.13 16.079 16.079 0 0 0 2.064-4.99 1 1 0 0 1 .823-.77l5.272-.81zm-22.08 12.16a10 10 0 1 1 10-10 10.007 10.007 0 0 1-10.002 10zm0-18a8 8 0 1 0 8 8 8.01 8.01 0 0 0-8.002-8z"/>
  </symbol>
  <symbol id="landing_module" viewBox="0 0 49 37">
    <path d="M48 25a1 1 0 0 1 0 2h-5v3h5a1 1 0 0 1 0 2h-5v5H6v-5H1a1 1 0 0 1 0-2h5v-3H1a1 1 0 0 1 0-2h5v-3H1a1 1 0 0 1 0-2h5v-3H1a1 1 0 0 1 0-2h5v-3H1a1 1 0 0 1 0-2h5V7H1a1 1 0 0 1 0-2h5V0h37v5h5a1 1 0 0 1 0 2h-5v3h5a1 1 0 0 1 0 2h-5v3h5a1 1 0 0 1 0 2h-5v3h5a1 1 0 0 1 0 2h-5v3h5zM41 2H8v33h33V2zM29.706 7l-3.9 10.059h5.206L19.294 30l3.9-10.058h-5.206z"/>
  </symbol>
  <symbol id="landing_phone" viewBox="0 0 26 48">
    <path d="M22 48H4a4.036 4.036 0 0 1-4-4.07V4.07A4.036 4.036 0 0 1 4 0h18a4.036 4.036 0 0 1 4 4.07v39.86A4.036 4.036 0 0 1 22 48zm2-43.93A2.04 2.04 0 0 0 22 2H4a2.039 2.039 0 0 0-2 2.07v39.86A2.039 2.039 0 0 0 4 46h18a2.04 2.04 0 0 0 2-2.07V4.07zM16 7h-6a1 1 0 0 1 0-2h6a1 1 0 0 1 0 2zm-3 33a2 2 0 1 1-2 2 2 2 0 0 1 2-2z"/>
  </symbol>
  <symbol id="landing_picture" viewBox="0 0 48 38">
    <path d="M44.907 38H3.09A3.089 3.089 0 0 1 0 35V3a3.089 3.089 0 0 1 3.09-3h41.817A3.092 3.092 0 0 1 48 3v32a3.092 3.092 0 0 1-3.093 3zM46 3a1.088 1.088 0 0 0-1.093-1H3.09A1.084 1.084 0 0 0 2 3v22.05l12.384-10.81a1 1 0 0 1 1.357.05l11.338 11.39 7.274-5.48a.993.993 0 0 1 1.31.1L46 30.94V3zm0 30.81L34.848 22.33l-7.266 5.47a.992.992 0 0 1-1.3-.09L14.991 16.37 2 27.71V35a1.084 1.084 0 0 0 1.09 1h41.817A1.088 1.088 0 0 0 46 35v-1.19zM31.963 12a2.987 2.987 0 1 1 2.991 3 3 3 0 0 1-2.991-3zm3.983 0a1 1 0 1 0-.992 1 1 1 0 0 0 .992-1z"/>
  </symbol>
  <symbol id="landing_text-file" viewBox="0 0 36 47.94">
    <path d="M35.98 14.09v31.83a2.027 2.027 0 0 1-2.024 2.02H2.036a2.036 2.036 0 0 1-2.037-2.03V2.05A2.036 2.036 0 0 1 2.036.02h19.952c.045 0 .083.02.126.02l.131.03a.943.943 0 0 1 .45.24l12.884 12.87a.58.58 0 0 1 .076.09.453.453 0 0 1 .077.08.976.976 0 0 1 .268.64.588.588 0 0 1-.02.1zM22.987 3.43V13h9.581zM34 14.94H22a.964.964 0 0 1-1.012-.95V1.94H2v43.97l32 .03v-31zm-27-2h9a1 1 0 0 1 0 2H7a1 1 0 0 1 0-2zm0 8h5a1 1 0 0 1 0 2H7a1 1 0 0 1 0-2zm.71 7.29a1 1 0 1 1-1.71.71 1.033 1.033 0 0 1 .29-.71 1.047 1.047 0 0 1 1.42 0zM7 34.94h17a1 1 0 0 1 0 2H7a1 1 0 0 1 0-2zm22.71.29a1.014 1.014 0 0 1 0 1.42 1.033 1.033 0 0 1-.71.29.99.99 0 0 1-.71-.29 1.004 1.004 0 0 1 1.42-1.42zm-.21-5.29h-5a1.25 1.25 0 0 1 0-2h5a1.25 1.25 0 0 1 0 2zm-.5-7h-7a1 1 0 0 1 0-2h7a1 1 0 0 1 0 2zm-6 6a1 1 0 0 1-1 1H12a1 1 0 0 1 0-2h10a1 1 0 0 1 1 1zm-6-6a.99.99 0 1 1 .71-.29 1.052 1.052 0 0 1-.71.29z"/>
  </symbol>
  <symbol id="landing_vector" viewBox="0 0 47.688 47.81">
    <path d="M46.954 31.29a2.478 2.478 0 0 1-3.513 0 2.518 2.518 0 0 1-.551-2.68l-4.688-4.74c1.179 5.11.374 11.66-2.445 15.5l1.7 1.71a1 1 0 0 1 0 1.41l-4.966 5.01a.977.977 0 0 1-1.409 0l-4.966-5.01a1 1 0 0 1 0-1.41l4.966-5.01a1.013 1.013 0 0 1 1.409 0l1.843 1.86c3.216-4.71 3.2-14.32-.082-18.01l-1.761 1.78a.977.977 0 0 1-1.409 0l-4.966-5.01a1 1 0 0 1 0-1.41l1.77-1.79C24.17 10.08 14.711 9.96 9.86 14.5l1.772 1.78a1 1 0 0 1 0 1.41L6.666 22.7a.977.977 0 0 1-1.409 0L.291 17.69a1 1 0 0 1 0-1.41l4.966-5.01a1.013 1.013 0 0 1 1.409 0l1.793 1.81c3.968-3.75 10.468-4.73 15.509-3.57L19.28 4.77a2.5 2.5 0 0 1-.9.18 2.441 2.441 0 0 1-1.758-.74 2.491 2.491 0 1 1 4.065-.85l8.618 8.7 1.779-1.79a1.013 1.013 0 0 1 1.409 0l4.966 5.01a1 1 0 0 1 0 1.41l-1.787 1.8 8.634 8.72a2.484 2.484 0 0 1 2.648 4.08zm-15.166 6.9l-3.565 3.6 3.565 3.6 3.566-3.6zM5.963 13.39l-3.565 3.6 3.565 3.6 3.566-3.6zm25.825-1.01l-3.565 3.6 3.565 3.6 3.566-3.6z"/>
  </symbol>
  <symbol id="player_next" viewBox="0 0 24 24">
    <path d="M6 18l8.5-6L6 6v12zM16 6v12h2V6h-2z"/>
  </symbol>
  <symbol id="player_pause" viewBox="0 0 24 24">
    <path d="M6 19h4V5H6v14zm8-14v14h4V5h-4z"/>
  </symbol>
  <symbol id="player_play" viewBox="0 0 24 24">
    <path d="M8 5v14l11-7z"/>
  </symbol>
  <symbol id="player_previous" viewBox="0 0 24 24">
    <path d="M6 6h2v12H6zm3.5 6l8.5 6V6z"/>
  </symbol>
  <symbol id="social_fb" viewBox="0 0 18 18">
    <path d="M16.2 0H1.8A1.793 1.793 0 0 0 0 1.8v14.4A1.793 1.793 0 0 0 1.8 18h14.4a1.793 1.793 0 0 0 1.8-1.8V1.8A1.793 1.793 0 0 0 16.2 0zm-.9 1.8v2.7h-1.8a.9.9 0 0 0-.9.9v1.8h2.7v2.7h-2.7v6.3H9.9V9.9H8.1V7.2h1.8V4.9a3.138 3.138 0 0 1 3.2-3.1h2.2z"/>
  </symbol>
  <symbol id="social_gp" viewBox="0 0 18 18">
    <path d="M8.3 6.2c0-.9-.5-2.7-1.9-2.7A1.256 1.256 0 0 0 5.2 5c0 1.1.5 2.6 1.8 2.6a1.232 1.232 0 0 0 1.3-1.4zm-.6 4.4h-.2a5.5 5.5 0 0 0-1.6.3 1.608 1.608 0 0 0-1.3 1.5c0 1 .9 2 2.7 2a1.976 1.976 0 0 0 2.2-1.8c-.1-.6-.6-1.1-1.8-2zM16.2 0H1.8A1.793 1.793 0 0 0 0 1.8v14.4A1.793 1.793 0 0 0 1.8 18h14.4a1.793 1.793 0 0 0 1.8-1.8V1.8A1.793 1.793 0 0 0 16.2 0zM6.4 15.5c-2.5 0-3.7-1.4-3.7-2.7a2.537 2.537 0 0 1 1.4-2.2 5.466 5.466 0 0 1 2.8-.8 1.078 1.078 0 0 1-.3-.9.9.9 0 0 1 .1-.5h-.4a2.739 2.739 0 0 1-2.9-2.7c0-1.5 1.2-3.2 3.7-3.2h3.8l-.3.3-.6.6-.1.1h-.6a2.666 2.666 0 0 1 .8 2 2.545 2.545 0 0 1-1.4 2.4.842.842 0 0 0-.4.7.538.538 0 0 0 .4.5c.1.1.3.2.4.3a3.164 3.164 0 0 1 1.7 2.6c0 1.6-1.2 3.5-4.4 3.5zM15.3 9h-1.8v1.8h-.9V9h-1.8v-.9h1.8V6.3h.9v1.8h1.8V9z"/>
  </symbol>
  <symbol id="social_mr" viewBox="0 0 18 18">
    <path d="M8.8 6.5a2.419 2.419 0 0 0-2.4 2.6 2.263 2.263 0 0 0 2.3 2.5 2.456 2.456 0 0 0 2.5-2.4v-.3a2.309 2.309 0 0 0-2.4-2.4zM16.2 0H1.8A1.793 1.793 0 0 0 0 1.8v14.4A1.793 1.793 0 0 0 1.8 18h14.4a1.793 1.793 0 0 0 1.8-1.8V1.8A1.793 1.793 0 0 0 16.2 0zm-2.4 13.4a1.566 1.566 0 0 1-2.5-1.2v-.4A3.338 3.338 0 0 1 8.8 13a3.905 3.905 0 0 1 0-7.8 3.733 3.733 0 0 1 2.6 1.2.56.56 0 0 1 .5-.6h.1a.619.619 0 0 1 .6.6v5.4c0 .4.3.5.6.3.8-.9 1.8-4.6-.5-6.7A5.34 5.34 0 0 0 6 4.9a5.17 5.17 0 0 0-1.7 6.2 4.965 4.965 0 0 0 6.2 2.7c1-.4 1.4 1 .4 1.4a6.511 6.511 0 0 1-7.7-3 6.6 6.6 0 0 1 2.3-8.7 6.674 6.674 0 0 1 8.4 1.1c2.3 2.4 2.1 7-.1 8.8z"/>
  </symbol>
  <symbol id="social_ok" viewBox="0 0 18 18">
    <path d="M16.2 0H1.8A1.793 1.793 0 0 0 0 1.8v14.4A1.793 1.793 0 0 0 1.8 18h14.4a1.793 1.793 0 0 0 1.8-1.8V1.8A1.793 1.793 0 0 0 16.2 0zM9 2.5a3.483 3.483 0 0 1 3.4 3.6 3.543 3.543 0 0 1-3.5 3.5A3.529 3.529 0 0 1 5.6 6 3.337 3.337 0 0 1 9 2.5zm3.9 8.4a3.956 3.956 0 0 1-1.5 1 8.469 8.469 0 0 1-1.7.4l.2.2 2.4 2.4a.8.8 0 0 1 .2.9 1.149 1.149 0 0 1-.9.6.864.864 0 0 1-.6-.3l-1.8-1.8a.231.231 0 0 0-.4 0c-.6.6-1.2 1.2-1.8 1.9a.8.8 0 0 1-.9.2.874.874 0 0 1-.5-.9.864.864 0 0 1 .3-.6c.8-.8 1.6-1.6 2.3-2.4l.2-.2a5.257 5.257 0 0 1-2.8-1 .53.53 0 0 0-.3-.2.817.817 0 0 1-.1-1.2c.2-.4.6-.4 1.1-.2a.349.349 0 0 1 .2.1 4.353 4.353 0 0 0 5.1 0c.2-.1.3-.2.5-.3a.7.7 0 0 1 .9.4.92.92 0 0 1-.1 1zM9 7.7A1.752 1.752 0 0 0 10.7 6 1.628 1.628 0 0 0 9 4.3 1.685 1.685 0 0 0 7.3 6 1.752 1.752 0 0 0 9 7.7z"/>
  </symbol>
  <symbol id="social_rss" viewBox="0 0 16 16">
    <path d="M15.751 16h-3.113a.248.248 0 0 1-.245-.247c0-6.704-5.448-12.158-12.146-12.158A.247.247 0 0 1 0 3.349V.248C0 .111.111 0 .247 0c8.651 0 15.696 7.023 15.739 15.676l.014.077a.25.25 0 0 1-.249.247zM.247 5.226c5.771 0 10.475 4.682 10.518 10.45l.012.077a.248.248 0 0 1-.248.246H7.506a.246.246 0 0 1-.246-.246c0-3.871-3.148-7.019-7.013-7.019A.248.248 0 0 1 0 8.487V5.474c0-.137.111-.248.247-.248zm2.125 6.028a2.375 2.375 0 0 1 2.372 2.374A2.376 2.376 0 0 1 2.372 16 2.376 2.376 0 0 1 0 13.628a2.375 2.375 0 0 1 2.372-2.374z"/>
  </symbol>
  <symbol id="social_tw" viewBox="0 0 18 18">
    <path d="M16.2 0H1.8A1.793 1.793 0 0 0 0 1.8v14.4A1.793 1.793 0 0 0 1.8 18h14.4a1.793 1.793 0 0 0 1.8-1.8V1.8A1.793 1.793 0 0 0 16.2 0zm-2.1 6.6c-.1 4.1-2.7 7-6.7 7.2a6.2 6.2 0 0 1-3.9-1.1 4.708 4.708 0 0 0 3.5-1A2.248 2.248 0 0 1 4.9 10a3.334 3.334 0 0 0 1 0A2.484 2.484 0 0 1 4 7.6a1.689 1.689 0 0 0 1 .3 2.7 2.7 0 0 1-.8-3.3 7.067 7.067 0 0 0 4.9 2.5c-.5-2.5 2.9-3.9 4.2-2.2a13.081 13.081 0 0 0 1.5-.5 2.209 2.209 0 0 1-1 1.3 6.468 6.468 0 0 0 1.3-.4 2.43 2.43 0 0 1-1 1.3z"/>
  </symbol>
  <symbol id="social_vk" viewBox="0 0 18 18">
    <path d="M16.2 0H1.8A1.793 1.793 0 0 0 0 1.8v14.4A1.793 1.793 0 0 0 1.8 18h14.4a1.793 1.793 0 0 0 1.8-1.8V1.8A1.793 1.793 0 0 0 16.2 0zm-2.5 10.4a15.933 15.933 0 0 1 1.3 1.3 4.233 4.233 0 0 1 .5.7.442.442 0 0 1-.3.7h-1.9a1.656 1.656 0 0 1-1.2-.5 6.034 6.034 0 0 0-.8-.8l-.3-.3a.349.349 0 0 0-.6.2 1.486 1.486 0 0 0-.2.9.53.53 0 0 1-.6.6 4.9 4.9 0 0 1-2.7-.6 5.814 5.814 0 0 1-1.8-1.7 22.1 22.1 0 0 1-2.6-4.4c-.1-.3 0-.5.4-.5h1.9a.42.42 0 0 1 .4.4 17.1 17.1 0 0 0 1.3 2.3 1.205 1.205 0 0 0 .5.5.288.288 0 0 0 .5-.1.9.9 0 0 0 .1-.5 9.652 9.652 0 0 0 0-1.7.85.85 0 0 0-.7-.7c-.1 0-.1-.1 0-.2a.6.6 0 0 1 .6-.3h2.2c.3.1.3.2.4.6v2.4a.864.864 0 0 0 .3.6c.2.1.3-.1.4-.2A6.15 6.15 0 0 0 12 7.2c.1-.3.3-.6.4-.9a.462.462 0 0 1 .5-.3h2.3c.3.1.4.2.3.5a6.376 6.376 0 0 1-.8 1.4 13.444 13.444 0 0 1-1.1 1.4.708.708 0 0 0 .1 1.1z"/>
  </symbol>
</svg>