<svg xmlns="http://www.w3.org/2000/svg" width="18" height="12" viewBox="0 0 18 12"><path fill="#3390F8" d="M17.8 5.281a10.923 10.923 0 0 0-3.783-3.833C12.434.483 10.761 0 9 0 7.239 0 5.566.483 3.983 1.448A10.92 10.92 0 0 0 .2 5.281a1.483 1.483 0 0 0-.201.72c0 .235.067.475.2.718a10.917 10.917 0 0 0 3.783 3.833C5.566 11.518 7.239 12 9 12c1.761 0 3.434-.48 5.017-1.442a10.85 10.85 0 0 0 3.782-3.84C17.933 6.477 18 6.237 18 6s-.067-.476-.2-.719zM7.016 2.017C7.695 1.339 8.507 1 9.454 1c.152 0 .28.053.387.16a.522.522 0 0 1 .159.385c0 .152-.053.28-.159.387a.526.526 0 0 1-.386.159c-.652 0-1.209.231-1.67.693a2.277 2.277 0 0 0-.694 1.67c0 .152-.053.28-.16.387A.526.526 0 0 1 6.547 5a.526.526 0 0 1-.387-.16.526.526 0 0 1-.16-.385c0-.946.34-1.759 1.017-2.437zm6.51 7.618C12.133 10.545 10.624 11 9 11s-3.134-.455-4.526-1.365C3.082 8.725 1.924 7.502 1 5.966 2.056 4.198 3.378 2.876 4.969 2a5.208 5.208 0 0 0-.636 2.528c0 1.386.457 2.57 1.37 3.556C6.616 9.07 7.715 9.562 9 9.562c1.285 0 2.384-.493 3.297-1.478.913-.985 1.37-2.17 1.37-3.556 0-.906-.212-1.75-.636-2.528 1.59.876 2.913 2.199 3.969 3.966-.923 1.536-2.081 2.759-3.474 3.669z"/></svg>