<svg xmlns="http://www.w3.org/2000/svg" width="18" height="14" viewBox="0 0 18 14"><path fill="#B9C5CD" d="M12.706 8.308a4.454 4.454 0 0 1-2.099 1.713l2.813-5.229c.053.313.08.604.08.875 0 .965-.265 1.845-.794 2.64zm.412-7.204A3414.32 3414.32 0 0 0 9.954 7a1834.575 1834.575 0 0 1-3.174 5.906l-.492.927a.313.313 0 0 1-.281.167c-.08 0-.53-.243-1.346-.73a.329.329 0 0 1-.161-.29c0-.084.147-.386.442-.907a10.369 10.369 0 0 1-2.647-1.802A12.352 12.352 0 0 1 .201 7.719 1.332 1.332 0 0 1 0 7c0-.264.067-.503.2-.719 1.026-1.632 2.298-2.92 3.818-3.864A9.261 9.261 0 0 1 9 1c.596 0 1.199.06 1.808.177l.542-1.01A.313.313 0 0 1 11.632 0c.033 0 .093.02.18.062a6.76 6.76 0 0 1 .643.354c.1.063.206.128.316.193.111.066.176.106.196.12a.32.32 0 0 1 .161.282c0 .048-.003.08-.01.093zm-7.543 9.802l.783-1.469a4.554 4.554 0 0 1-1.366-1.656A4.726 4.726 0 0 1 4.5 5.667c0-.84.204-1.622.613-2.344C3.579 4.136 2.303 5.361 1.286 7c1.118 1.792 2.548 3.094 4.289 3.906zm3.767-7.552A.491.491 0 0 0 9.482 3 .492.492 0 0 0 9 2.5c-.837 0-1.556.311-2.155.932a3.106 3.106 0 0 0-.899 2.235.491.491 0 0 0 .482.5.492.492 0 0 0 .482-.5c0-.597.205-1.108.613-1.531A1.978 1.978 0 0 1 9 3.5a.457.457 0 0 0 .342-.146zm8.457 2.927c.134.237.2.476.201.72 0 .242-.067.482-.2.718-.262.444-.627.948-1.096 1.51-1.004 1.195-2.168 2.122-3.49 2.781A9.313 9.313 0 0 1 9 13l.743-1.375a8.145 8.145 0 0 0 3.943-1.427c1.208-.826 2.218-1.892 3.028-3.198-.77-1.243-1.714-2.264-2.832-3.062l.632-1.167a12.01 12.01 0 0 1 1.834 1.594 10.29 10.29 0 0 1 1.451 1.916z"/></svg>