<svg xmlns="http://www.w3.org/2000/svg" preserveAspectRatio="xMidYMid" width="96.906" height="29" viewBox="0 0 96.906 29"><path d="M96.204 18.064c-.567 1.966-1.308 3.645-2.223 5.038-.915 1.392-1.949 2.526-3.102 3.4a11.503 11.503 0 0 1-3.772 1.904 14.982 14.982 0 0 1-4.205.594c-1.469 0-2.763-.198-3.882-.594-1.12-.395-2.003-1.03-2.652-1.904-.649-.874-1.028-2.008-1.139-3.4-.111-1.393.117-3.072.685-5.038.559-1.939 1.294-3.598 2.205-4.977.911-1.379 1.945-2.512 3.102-3.4a11.75 11.75 0 0 1 3.763-1.946 14.53 14.53 0 0 1 4.231-.614c1.441 0 2.729.198 3.863.594 1.132.396 2.023 1.031 2.672 1.905.648.874 1.028 2.007 1.139 3.4.111 1.392-.117 3.072-.685 5.038zm-5.955-4.363c-.466-.833-1.323-1.249-2.57-1.249-1.22 0-2.322.43-3.304 1.29-.983.86-1.766 2.301-2.349 4.322-.599 2.075-.657 3.522-.172 4.341.484.82 1.35 1.229 2.597 1.229a4.854 4.854 0 0 0 3.286-1.229c.943-.819 1.715-2.266 2.314-4.341.598-2.075.665-3.529.198-4.363zm-18.543 8.684a13.294 13.294 0 0 1-2.713 3.42c-1.088.983-2.366 1.762-3.834 2.335s-3.158.819-5.071.819h-8.535L59.965 0h5.915l-2.258 7.854c.134-.046 1.238-.399 3.017-.399 1.441 0 2.71.211 3.808.634 1.097.424 1.957 1.073 2.578 1.946.621.874.979 1.987 1.074 3.339.094 1.351-.13 2.969-.674 4.854a19.887 19.887 0 0 1-1.719 4.157zm-4.34-8.52a2.462 2.462 0 0 0-1.192-.983c-.509-.205-1.082-.307-1.72-.307-.332 0-.729.027-1.188.082-.459.055-.821.109-1.087.164l-3.085 10.69h1.996c.665 0 1.319-.081 1.962-.245a5.039 5.039 0 0 0 1.787-.861c.548-.409 1.052-.955 1.513-1.638.46-.682.836-1.529 1.127-2.539.292-1.011.418-1.878.377-2.602-.04-.723-.204-1.31-.49-1.761zM45.685 17.9L42.54 28.795h-6.236l6.149-21.463h6.282l-.461 1.597c.17-.108 2.2-1.761 4.957-1.761.637 0 1.149.028 1.536.082.385.055.583.068.591.041l-3.355 5.448c-4.126 0-5.987 4.014-6.318 5.161zM24.43 28.959c-1.414 0-2.734-.109-3.96-.328-1.226-.218-2.222-.682-2.987-1.392-.766-.71-1.237-1.741-1.415-3.093-.178-1.351.064-3.174.726-5.468l3.263-11.305h6.32l-3.215 11.141c-.276.956-1.669 4.916 2.531 4.916l2.16-.002 4.553-16.055h6.32l-6.219 21.586H24.43zM13.929 5.489L7.28 28.959H.336L7.11 5.489H0L1.584 0h21.305l-3.388 5.489h-5.572z" fill="#fff"/></svg>