<svg xmlns="http://www.w3.org/2000/svg" preserveAspectRatio="xMidYMid" width="96.906" height="29" viewBox="0 0 96.906 29"><path d="M96.204 18.064c-.567 1.966-1.308 3.645-2.223 5.038-.914 1.392-1.948 2.526-3.1 3.4a11.503 11.503 0 0 1-3.773 1.904c-1.36.396-2.764.594-4.205.594-1.47 0-2.763-.198-3.882-.594-1.12-.395-2.003-1.03-2.652-1.904-.65-.874-1.028-2.008-1.14-3.4-.11-1.393.118-3.072.686-5.038.56-1.94 1.294-3.598 2.205-4.977.91-1.38 1.944-2.512 3.1-3.4a11.75 11.75 0 0 1 3.764-1.946 14.53 14.53 0 0 1 4.23-.613c1.442 0 2.73.198 3.864.594 1.132.397 2.023 1.032 2.672 1.906.648.874 1.028 2.007 1.14 3.4.11 1.392-.118 3.072-.686 5.038zM90.25 13.7c-.467-.832-1.324-1.248-2.57-1.248-1.22 0-2.323.43-3.305 1.29-.983.86-1.766 2.3-2.35 4.322-.598 2.075-.656 3.522-.17 4.34.483.82 1.35 1.23 2.596 1.23 1.25 0 2.344-.41 3.287-1.23.943-.818 1.715-2.265 2.314-4.34.6-2.075.666-3.53.2-4.363zm-18.544 8.685a13.294 13.294 0 0 1-2.713 3.42c-1.088.983-2.366 1.762-3.834 2.335-1.47.573-3.16.82-5.072.82h-8.535L59.965 0h5.915l-2.258 7.854c.134-.046 1.238-.4 3.017-.4 1.44 0 2.71.212 3.807.635 1.097.423 1.957 1.072 2.578 1.945.62.874.98 1.987 1.074 3.34.093 1.35-.13 2.968-.675 4.853-.425 1.474-1 2.86-1.72 4.157zm-4.34-8.52a2.462 2.462 0 0 0-1.192-.983c-.51-.205-1.082-.307-1.72-.307-.332 0-.73.027-1.188.082-.46.055-.82.11-1.087.164l-3.086 10.69h1.996c.665 0 1.32-.08 1.962-.244a5.04 5.04 0 0 0 1.787-.86c.547-.41 1.05-.956 1.512-1.64.46-.68.836-1.528 1.127-2.538.29-1.01.417-1.878.376-2.602-.04-.723-.204-1.31-.49-1.76zM45.686 17.9L42.54 28.795h-6.236l6.15-21.463h6.28l-.46 1.597c.17-.11 2.2-1.762 4.957-1.762.638 0 1.15.028 1.537.082.385.055.583.068.59.04l-3.354 5.45c-4.126 0-5.987 4.013-6.318 5.16zM24.43 28.96c-1.414 0-2.734-.11-3.96-.33-1.226-.217-2.222-.68-2.987-1.39-.766-.71-1.237-1.742-1.415-3.094-.178-1.35.064-3.174.726-5.468l3.263-11.305h6.32l-3.215 11.14c-.276.957-1.67 4.917 2.53 4.917l2.16-.002 4.554-16.055h6.32l-6.22 21.586H24.43zM13.93 5.49L7.28 28.96H.336L7.11 5.49H0L1.584 0H22.89L19.5 5.49h-5.57z" fill="#fff"/></svg>