<svg xmlns="http://www.w3.org/2000/svg" width="48" height="48" viewBox="0 0 48 48">
  <defs>
    <style>
      .cls-1 {
        fill: #1b1b1b;
        fill-rule: evenodd;
      }
    </style>
  </defs>
  <path id="gear" class="cls-1" d="M295.15,1175.91l-5.464.84a17.952,17.952,0,0,1-1.8,4.35l3.332,4.37a1,1,0,0,1-.086,1.31l-4.229,4.26a1.006,1.006,0,0,1-1.3.1l-4.457-3.28a18.233,18.233,0,0,1-4.363,1.81l-0.722,5.44a1,1,0,0,1-.987.87l-5.992.02h0a1,1,0,0,1-.988-0.85l-0.835-5.46a18.147,18.147,0,0,1-4.335-1.78l-4.389,3.31a1,1,0,0,1-1.307-.08l-4.261-4.23a1,1,0,0,1-.1-1.3l3.253-4.46a18,18,0,0,1-1.834-4.42l-5.38-.67a1,1,0,0,1-.877-0.99L248,1169.08a1,1,0,0,1,.851-0.99l5.453-.82a18.122,18.122,0,0,1,1.852-4.42l-3.37-4.31a1,1,0,0,1,.079-1.32l4.23-4.26a1.011,1.011,0,0,1,1.315-.09l4.41,3.36a17.731,17.731,0,0,1,4.4-1.83l0.71-5.51a0.994,0.994,0,0,1,.988-0.87l6-.02h0a1,1,0,0,1,.989.86l0.8,5.53a18.045,18.045,0,0,1,4.313,1.77l4.439-3.38a1,1,0,0,1,1.31.08l4.258,4.23a1,1,0,0,1,.093,1.31l-3.328,4.43a17.981,17.981,0,0,1,1.854,4.4l5.453,0.71a1,1,0,0,1,.87.99l0.019,5.99A1,1,0,0,1,295.15,1175.91Zm-1.168-6.1-5.259-.69a0.994,0.994,0,0,1-.843-0.76,16.061,16.061,0,0,0-2.128-5.05,1,1,0,0,1,.044-1.14l3.212-4.27-3.021-3-4.283,3.26a1,1,0,0,1-1.131.05,16.252,16.252,0,0,0-4.968-2.03,1.019,1.019,0,0,1-.769-0.84l-0.778-5.34-4.255.01-0.685,5.32a0.994,0.994,0,0,1-.77.85,16.143,16.143,0,0,0-5.058,2.1,1.009,1.009,0,0,1-1.139-.05l-4.253-3.24-2.991,3.01,3.253,4.16a1.01,1.01,0,0,1,.055,1.16,16.119,16.119,0,0,0-2.128,5.06,1.017,1.017,0,0,1-.825.77l-5.257.79,0.015,4.25,5.191,0.64a1,1,0,0,1,.852.77,16.019,16.019,0,0,0,2.1,5.07,1.013,1.013,0,0,1-.039,1.13l-3.139,4.29,3.036,3.02,4.233-3.2a1.026,1.026,0,0,1,.6-0.2,1,1,0,0,1,.527.15,16.316,16.316,0,0,0,4.982,2.05,0.989,0.989,0,0,1,.767.82l0.807,5.27,4.257-.02,0.7-5.24a1.01,1.01,0,0,1,.768-0.85,15.888,15.888,0,0,0,5.01-2.08,1,1,0,0,1,1.125.04l4.3,3.17,3.007-3.03-3.215-4.22a0.99,0.99,0,0,1-.052-1.13,16.079,16.079,0,0,0,2.064-4.99,1,1,0,0,1,.823-0.77l5.272-.81Zm-22.08,12.16a10,10,0,1,1,10-10A10.007,10.007,0,0,1,271.9,1181.97Zm0-18a8,8,0,1,0,8,8A8.01,8.01,0,0,0,271.9,1163.97Z" transform="translate(-248 -1148)"/>
</svg>
