<svg xmlns="http://www.w3.org/2000/svg" width="48" height="38" viewBox="0 0 48 38">
  <defs>
    <style>
      .cls-1 {
        fill: #1b1b1b;
        fill-rule: evenodd;
      }
    </style>
  </defs>
  <path id="picture" class="cls-1" d="M288.907,1509H247.09a3.089,3.089,0,0,1-3.09-3v-32a3.089,3.089,0,0,1,3.09-3h41.817a3.092,3.092,0,0,1,3.093,3v32A3.092,3.092,0,0,1,288.907,1509ZM290,1474a1.088,1.088,0,0,0-1.093-1H247.09a1.084,1.084,0,0,0-1.09,1v22.05l12.384-10.81a1,1,0,0,1,1.357.05l11.338,11.39,7.274-5.48a0.993,0.993,0,0,1,1.31.1L290,1501.94V1474Zm0,30.81-11.152-11.48-7.266,5.47a0.992,0.992,0,0,1-1.3-.09l-11.291-11.34L246,1498.71V1506a1.084,1.084,0,0,0,1.09,1h41.817a1.088,1.088,0,0,0,1.093-1v-1.19ZM275.963,1483a2.987,2.987,0,1,1,2.991,3A3,3,0,0,1,275.963,1483Zm3.983,0a1,1,0,1,0-.992,1A1,1,0,0,0,279.946,1483Z" transform="translate(-244 -1471)"/>
</svg>
