<svg xmlns="http://www.w3.org/2000/svg" width="36" height="47.94" viewBox="0 0 36 47.94">
  <defs>
    <style>
      .cls-1 {
        fill-rule: evenodd;
      }
    </style>
  </defs>
  <path id="text-file" class="cls-1" d="M615.98,1160.15v31.83a2.027,2.027,0,0,1-2.024,2.02h-31.92a2.036,2.036,0,0,1-2.037-2.03v-43.86a2.036,2.036,0,0,1,2.037-2.03h19.952c0.045,0,.083.02,0.126,0.02l0.131,0.03a0.943,0.943,0,0,1,.45.24l12.884,12.87a0.58,0.58,0,0,1,.076.09,0.453,0.453,0,0,1,.077.08,0.976,0.976,0,0,1,.268.64A0.588,0.588,0,0,1,615.98,1160.15Zm-12.993-10.66v9.57h9.581ZM614,1161H602a0.964,0.964,0,0,1-1.012-.95V1148H582l0,43.97,32,0.03v-31Zm-27-2h9a1,1,0,0,1,0,2h-9A1,1,0,0,1,587,1159Zm0,8h5a1,1,0,0,1,0,2h-5A1,1,0,0,1,587,1167Zm0.71,7.29a1,1,0,1,1-1.71.71,1.033,1.033,0,0,1,.29-0.71A1.047,1.047,0,0,1,587.71,1174.29ZM587,1181h17a1,1,0,0,1,0,2H587A1,1,0,0,1,587,1181Zm22.71,0.29a1.014,1.014,0,0,1,0,1.42,1.033,1.033,0,0,1-.71.29,0.99,0.99,0,0,1-.71-0.29A1,1,0,0,1,609.71,1181.29ZM609.5,1176h-5a1.25,1.25,0,0,1,0-2h5A1.25,1.25,0,0,1,609.5,1176Zm-0.5-7h-7a1,1,0,0,1,0-2h7A1,1,0,0,1,609,1169Zm-6,6a1,1,0,0,1-1,1H592a1,1,0,0,1,0-2h10A1,1,0,0,1,603,1175Zm-6-6a0.99,0.99,0,1,1,.71-0.29A1.052,1.052,0,0,1,597,1169Z" transform="translate(-580 -1146.06)"/>
</svg>
