<svg xmlns="http://www.w3.org/2000/svg" width="47.688" height="47.81" viewBox="0 0 47.688 47.81">
  <defs>
    <style>
      .cls-1 {
        fill: #1b1b1b;
        fill-rule: evenodd;
      }
    </style>
  </defs>
  <path id="vector" class="cls-1" d="M949.016,1175.29a2.478,2.478,0,0,1-3.513,0,2.518,2.518,0,0,1-.551-2.68l-4.688-4.74c1.179,5.11.374,11.66-2.445,15.5l1.7,1.71a1,1,0,0,1,0,1.41l-4.966,5.01a0.977,0.977,0,0,1-1.409,0l-4.966-5.01a1,1,0,0,1,0-1.41l4.966-5.01a1.013,1.013,0,0,1,1.409,0l1.843,1.86c3.216-4.71,3.2-14.32-.082-18.01l-1.761,1.78a0.977,0.977,0,0,1-1.409,0l-4.966-5.01a1,1,0,0,1,0-1.41l1.77-1.79c-3.716-3.41-13.175-3.53-18.026,1.01l1.772,1.78a1,1,0,0,1,0,1.41l-4.966,5.01a0.977,0.977,0,0,1-1.409,0l-4.966-5.01a1,1,0,0,1,0-1.41l4.966-5.01a1.013,1.013,0,0,1,1.409,0l1.793,1.81c3.968-3.75,10.468-4.73,15.509-3.57l-4.688-4.74a2.5,2.5,0,0,1-.9.18,2.441,2.441,0,0,1-1.758-.74,2.491,2.491,0,1,1,4.065-.85l8.618,8.7,1.779-1.79a1.013,1.013,0,0,1,1.409,0l4.966,5.01a1,1,0,0,1,0,1.41l-1.787,1.8,8.634,8.72A2.484,2.484,0,0,1,949.016,1175.29Zm-15.166,6.9-3.565,3.6,3.565,3.6,3.566-3.6Zm-25.825-24.8-3.565,3.6,3.565,3.6,3.566-3.6Zm25.825-1.01-3.565,3.6,3.565,3.6,3.566-3.6Z" transform="translate(-902.062 -1144)"/>
</svg>
