<?xml version="1.0" standalone="no"?>
<!DOCTYPE svg PUBLIC "-//W3C//DTD SVG 20010904//EN"
 "http://www.w3.org/TR/2001/REC-SVG-20010904/DTD/svg10.dtd">
<svg version="1.0" xmlns="http://www.w3.org/2000/svg"
 width="700.000000pt" height="700.000000pt" viewBox="0 0 700.000000 700.000000"
 preserveAspectRatio="xMidYMid meet">
<metadata>
Created by potrace 1.11, written by Peter Selinger 2001-2013
</metadata>
<g transform="translate(0.000000,700.000000) scale(0.100000,-0.100000)"
fill="#000000" stroke="none">
<path d="M2257 5814 c-1 -2 -33 -4 -71 -5 -37 -1 -100 -8 -139 -15 -544 -95
-964 -455 -1137 -974 -29 -86 -33 -100 -51 -200 -83 -468 51 -954 401 -1455
190 -273 364 -471 737 -840 204 -202 286 -281 417 -400 19 -16 78 -71 132
-121 55 -50 121 -110 149 -135 27 -24 59 -53 71 -64 11 -11 36 -33 55 -50 31
-27 144 -127 253 -225 21 -19 124 -120 227 -223 103 -104 192 -186 197 -183 5
3 81 78 168 166 87 88 213 209 279 268 66 59 127 114 135 122 9 8 47 42 85 75
37 33 73 65 79 70 6 6 58 53 116 105 58 52 114 104 126 115 11 11 69 65 129
120 900 825 1344 1414 1481 1960 7 26 35 160 40 188 10 54 13 394 4 434 -5 21
-11 58 -15 83 -12 88 -58 235 -105 336 -16 36 -30 67 -30 70 0 2 -22 41 -50
85 -168 271 -401 470 -685 584 -91 36 -244 79 -325 90 -25 3 -53 8 -63 11 -10
3 -82 6 -160 5 -132 0 -183 -3 -247 -16 -14 -3 -41 -8 -60 -11 -191 -34 -404
-123 -590 -247 -89 -60 -128 -93 -236 -199 l-81 -79 -84 83 c-101 101 -121
117 -225 190 -208 145 -484 248 -734 274 -62 6 -189 11 -193 8z"/>
</g>
</svg>
