<?xml version="1.0" standalone="no"?>
<!DOCTYPE svg PUBLIC "-//W3C//DTD SVG 20010904//EN"
 "http://www.w3.org/TR/2001/REC-SVG-20010904/DTD/svg10.dtd">
<svg version="1.0" xmlns="http://www.w3.org/2000/svg"
 width="512.000000pt" height="512.000000pt" viewBox="0 0 512.000000 512.000000"
 preserveAspectRatio="xMidYMid meet">
<metadata>
Created by potrace 1.11, written by Peter Selinger 2001-2013
</metadata>
<g transform="translate(0.000000,512.000000) scale(0.100000,-0.100000)"
fill="#000000" stroke="none">
<path d="M3417 4255 c-1 -2 -36 -5 -77 -8 -171 -14 -342 -69 -498 -162 -89
-53 -140 -93 -226 -177 -32 -32 -59 -58 -60 -58 -1 0 -38 34 -82 76 -167 161
-341 249 -614 313 -46 11 -335 9 -380 -3 -14 -3 -38 -9 -54 -11 -46 -9 -161
-51 -230 -85 -236 -116 -403 -299 -511 -560 -18 -44 -32 -80 -30 -80 2 0 -1
-15 -6 -32 -33 -111 -45 -336 -24 -468 49 -315 221 -629 550 -1005 83 -96 394
-407 545 -545 69 -63 148 -136 175 -161 28 -25 115 -104 195 -175 80 -70 216
-198 303 -283 87 -86 160 -155 163 -154 3 0 79 72 167 160 89 87 193 185 231
218 37 33 78 69 90 80 56 51 212 192 235 214 14 13 71 64 126 115 233 214 518
509 648 671 9 11 32 40 52 64 109 133 253 380 308 529 62 167 81 273 81 452 1
289 -78 503 -267 723 -122 142 -290 244 -517 315 -55 17 -282 45 -293 37z"/>
</g>
</svg>
