<?xml version="1.0" standalone="no"?>
<!DOCTYPE svg PUBLIC "-//W3C//DTD SVG 20010904//EN"
 "http://www.w3.org/TR/2001/REC-SVG-20010904/DTD/svg10.dtd">
<svg version="1.0" xmlns="http://www.w3.org/2000/svg"
 width="1000.000000pt" height="1000.000000pt" viewBox="0 0 1000.000000 1000.000000"
 preserveAspectRatio="xMidYMid meet">
<metadata>
Created by potrace 1.11, written by Peter Selinger 2001-2013
</metadata>
<g transform="translate(0.000000,1000.000000) scale(0.100000,-0.100000)"
fill="#000000" stroke="none">
<path d="M2819 8806 c-2 -2 -40 -7 -84 -10 -44 -4 -87 -9 -95 -11 -14 -4 -37
-8 -112 -20 -111 -18 -315 -76 -443 -127 -686 -272 -1193 -820 -1409 -1523
-31 -101 -73 -292 -81 -370 -4 -33 -11 -89 -15 -125 -9 -68 -6 -447 4 -515 3
-22 8 -58 11 -80 7 -57 23 -148 31 -180 1 -5 4 -21 7 -35 56 -280 190 -621
374 -955 137 -248 432 -661 669 -935 252 -292 355 -402 699 -745 277 -277 435
-429 660 -636 39 -35 93 -85 120 -110 28 -25 100 -91 160 -145 61 -54 112
-101 115 -104 3 -3 88 -80 190 -170 102 -90 187 -167 190 -170 3 -3 61 -54
130 -114 113 -99 212 -186 274 -241 13 -11 54 -47 91 -80 38 -33 210 -199 382
-370 173 -171 316 -310 318 -310 2 0 143 137 312 305 170 168 342 334 383 370
41 36 77 67 80 70 3 3 43 39 90 79 47 41 90 80 95 85 6 6 44 40 85 75 41 36
80 69 85 75 6 6 42 38 80 71 39 33 72 62 75 65 3 3 45 41 95 85 109 97 93 83
201 180 84 76 317 288 340 310 6 5 60 55 120 110 223 207 307 287 594 575 303
303 364 366 510 530 47 52 90 100 95 106 6 6 30 35 55 64 25 30 59 70 76 90
50 58 196 241 239 300 22 30 43 60 47 65 36 46 86 117 149 212 342 514 522
952 604 1467 29 187 27 589 -5 768 -5 29 -12 69 -15 88 -36 221 -157 542 -290
768 -135 230 -373 501 -575 655 -41 31 -79 61 -85 65 -25 19 -104 72 -109 72
-3 0 -25 14 -50 30 -132 90 -408 206 -626 264 -235 62 -388 81 -660 81 -160 0
-276 -6 -346 -19 -33 -6 -88 -15 -124 -21 -61 -10 -265 -64 -347 -91 -405
-136 -789 -378 -1080 -681 l-97 -101 -116 117 c-401 407 -887 661 -1465 766
-16 3 -52 8 -80 11 -27 3 -61 8 -75 11 -28 6 -446 14 -451 9z"/>
</g>
</svg>
