<svg xmlns="http://www.w3.org/2000/svg" width="40" height="47" viewBox="0 0 40 47">
  <defs>
    <style>
      .cls-1 {
        fill: #1b1b1b;
        fill-rule: evenodd;
      }
    </style>
  </defs>
  <path id="cube" class="cls-1" d="M945.536,860.652l-18.989,11.185c-0.018.012-.041,0.007-0.059,0.018a0.894,0.894,0,0,1-.979,0c-0.019-.011-0.041-0.006-0.059-0.018l-18.989-11.185a1,1,0,0,1-.451-0.834V837.136a0.985,0.985,0,0,1,.752-0.95l18.688-11.023a1,1,0,0,1,1.1,0l18.394,10.849c0.016,0,.03-0.009.046-0.009a1,1,0,0,1,1,1v22.815A1,1,0,0,1,945.536,860.652ZM927,869.223l16.99-9.944v-19.73L926.9,849.626l0.094,0.41v19.187Zm-18.989-9.944L925,869.223V850.036l0.094-.41-17.084-10.077v19.73ZM926,827.2l-17.582,10.3L926,847.8l17.583-10.3Z" transform="translate(-906 -825)"/>
</svg>
