<svg xmlns="http://www.w3.org/2000/svg" width="26" height="48" viewBox="0 0 26 48">
  <defs>
    <style>
      .cls-1 {
        fill: #1b1b1b;
        fill-rule: evenodd;
      }
    </style>
  </defs>
  <path id="phone" class="cls-1" d="M607,1509H589a4.036,4.036,0,0,1-4-4.07v-39.86a4.036,4.036,0,0,1,4-4.07h18a4.036,4.036,0,0,1,4,4.07v39.86A4.036,4.036,0,0,1,607,1509Zm2-43.93a2.04,2.04,0,0,0-2-2.07H589a2.039,2.039,0,0,0-2,2.07v39.86a2.039,2.039,0,0,0,2,2.07h18a2.04,2.04,0,0,0,2-2.07v-39.86Zm-8,2.93h-6a1,1,0,0,1,0-2h6A1,1,0,0,1,601,1468Zm-3,33a2,2,0,1,1-2,2A2,2,0,0,1,598,1501Z" transform="translate(-585 -1461)"/>
</svg>
