<svg xmlns="http://www.w3.org/2000/svg" xmlns:xlink="http://www.w3.org/1999/xlink" preserveAspectRatio="xMidYMid" width="96.906" height="29" viewBox="0 0 96.906 29">
  <path d="M96.204,18.064 C95.637,20.030 94.896,21.709 93.981,23.102 C93.066,24.494 92.032,25.628 90.879,26.502 C89.726,27.376 88.469,28.011 87.107,28.406 C85.746,28.802 84.343,29.000 82.902,29.000 C81.433,29.000 80.139,28.802 79.020,28.406 C77.900,28.011 77.017,27.376 76.368,26.502 C75.719,25.628 75.340,24.494 75.229,23.102 C75.118,21.709 75.346,20.030 75.914,18.064 C76.473,16.125 77.208,14.466 78.119,13.087 C79.030,11.708 80.064,10.575 81.221,9.687 C82.378,8.800 83.632,8.151 84.984,7.741 C86.336,7.332 87.746,7.127 89.215,7.127 C90.656,7.127 91.944,7.325 93.078,7.721 C94.210,8.117 95.101,8.752 95.750,9.626 C96.398,10.500 96.778,11.633 96.889,13.026 C97.000,14.418 96.772,16.098 96.204,18.064 ZM90.249,13.701 C89.783,12.868 88.926,12.452 87.679,12.452 C86.459,12.452 85.357,12.882 84.375,13.742 C83.392,14.602 82.609,16.043 82.026,18.064 C81.427,20.139 81.369,21.586 81.854,22.405 C82.338,23.225 83.204,23.634 84.451,23.634 C85.699,23.634 86.794,23.225 87.737,22.405 C88.680,21.586 89.452,20.139 90.051,18.064 C90.649,15.989 90.716,14.535 90.249,13.701 ZM71.706,22.385 C70.984,23.682 70.080,24.822 68.993,25.805 C67.905,26.788 66.627,27.567 65.159,28.140 C63.691,28.713 62.001,28.959 60.088,28.959 C59.893,28.959 52.639,28.959 51.553,28.959 L59.965,-0.000 L65.880,-0.000 L63.622,7.854 C63.756,7.808 64.860,7.455 66.639,7.455 C68.080,7.455 69.349,7.666 70.447,8.089 C71.544,8.513 72.404,9.162 73.025,10.035 C73.646,10.909 74.004,12.022 74.099,13.374 C74.193,14.725 73.969,16.343 73.425,18.228 C73.000,19.702 72.426,21.088 71.706,22.385 ZM67.366,13.865 C67.081,13.415 66.683,13.087 66.174,12.882 C65.665,12.677 65.092,12.575 64.454,12.575 C64.122,12.575 63.725,12.602 63.266,12.657 C62.807,12.712 62.445,12.766 62.179,12.821 L59.094,23.511 C59.499,23.511 60.701,23.511 61.090,23.511 C61.755,23.511 62.409,23.430 63.052,23.266 C63.695,23.102 64.291,22.815 64.839,22.405 C65.387,21.996 65.891,21.450 66.352,20.767 C66.812,20.085 67.188,19.238 67.479,18.228 C67.771,17.217 67.897,16.350 67.856,15.626 C67.816,14.903 67.652,14.316 67.366,13.865 ZM45.685,17.900 L42.540,28.795 L36.304,28.795 L42.453,7.332 L48.735,7.332 L48.274,8.929 C48.444,8.821 50.474,7.168 53.231,7.168 C53.868,7.168 54.380,7.196 54.767,7.250 C55.152,7.305 55.350,7.318 55.358,7.291 L52.003,12.739 C47.877,12.739 46.016,16.753 45.685,17.900 ZM24.430,28.959 C23.016,28.959 21.696,28.850 20.470,28.631 C19.244,28.413 18.248,27.949 17.483,27.239 C16.717,26.529 16.246,25.498 16.068,24.146 C15.890,22.795 16.132,20.972 16.794,18.678 L20.057,7.373 L26.377,7.373 L23.162,18.514 C22.886,19.470 21.493,23.430 25.693,23.430 C26.496,23.430 27.165,23.428 27.853,23.428 L32.406,7.373 L38.726,7.373 L32.507,28.959 C32.507,28.959 25.927,28.959 24.430,28.959 ZM13.929,5.489 L7.280,28.959 L0.336,28.959 L7.110,5.489 L-0.000,5.489 L1.584,-0.000 L22.889,-0.000 L19.501,5.489 L13.929,5.489 Z" fill="#fff" />
</svg>
