<svg xmlns="http://www.w3.org/2000/svg" style="width:0; height:0; visibility:hidden;">
    <symbol id="add" viewBox="0 0 16 16">
      <path fill-rule="evenodd" d="M8 0a8 8 0 1 0 0 16A8 8 0 0 0 8 0zm4 9H9v3H7V9H4V7h3V4h2v3h3v2z"/>
    </symbol>
    <symbol id="chevron-down" viewBox="0 0 10 5">
      <path d="M5 5L0 1.072.683 0 5 3.39 9.317 0 10 1.072 5 5z"/>
    </symbol>
    <symbol id="chevron-left" viewBox="0 0 7.13 14">
      <path d="M0 7l5.598-7 1.528.956L2.293 7l4.833 6.043L5.598 14 0 7z"/>
    </symbol>
    <symbol id="chevron-right" viewBox="0 0 7.12 14">
      <path d="M7.12 7l-5.598 7-1.528-.957L4.827 7-.006.956 1.522 0 7.12 7z"/>
    </symbol>
    <symbol id="chevron-up" viewBox="0 0 10 5">
      <path d="M5 0l5 3.928L9.317 5 5 1.61.683 5 0 3.928 5 0z" class="cls-1"/>
    </symbol>
    <symbol id="close" viewBox="0 0 16 16">
      <path d="M16 14.546L14.545 16 8 9.455 1.455 16 0 14.546 6.545 8 0 1.455 1.455 0 8 6.546 14.545 0 16 1.455 9.454 8 16 14.546z" class="cls-1"/>
    </symbol>
    <symbol id="fb" viewBox="0 0 18 18">
      <path d="M16.2 0H1.8C.8 0 0 .8 0 1.8v14.4c0 1 .8 1.8 1.8 1.8h14.4c1 0 1.8-.8 1.8-1.8V1.8c0-1-.8-1.8-1.8-1.8zm-.9 1.8v2.7h-1.8c-.5 0-.9.4-.9.9v1.8h2.7v2.7h-2.7v6.3H9.9V9.9H8.1V7.2h1.8V4.9c0-1.7 1.4-3.1 3.2-3.1h2.2z"/>
    </symbol>
    <symbol id="github-octocat" viewBox="0 0 100 100">
      <path fill-rule="evenodd" clip-rule="evenodd" d="M49.94 99.04C22.827 99.04.847 77.06.847 49.942.847 22.828 22.827.847 49.94.847c27.117 0 49.1 21.982 49.1 49.096 0 27.116-21.982 49.096-49.1 49.096zm0-90.61c-22.924 0-41.51 18.586-41.51 41.513 0 18.678 12.335 34.474 29.304 39.69-.006-.952.006-6.692-.008-7.697-.092-.056-9.734 2.825-13.88-4.128-.66-1.13-1.73-5.102-4.622-7.3-.1-.086-2.24-1.172-2.435-2.24-.023-.147.136-.46.347-.535.22-.08 3.735-1.518 7.652 3.43 1.18 1.656 3.85 8.008 13.182 4.083.25-.98.75-3.236 3.715-3.852-13.9-1.654-20.248-6.93-22.22-18.758-1.23-8.062 1.136-14.764 4.69-18.072-.54-.703-2.313-6.596.443-12.828 2.987-.595 8.466 1.54 13.282 4.99 6.792-2.44 19.543-1.807 24.106 0 2.168-1.785 9.913-5.953 13.236-4.98.976 2.473 2.383 8.467.438 12.836C79.99 39.015 81.21 44.74 80.43 51.77c-.957 10.655-7.516 18.267-22.244 19.523 3.71 2.546 3.874 6.53 4.002 8.1.033 3.664-.042 8.65.005 10.226C79.143 84.392 91.46 68.605 91.46 49.94 91.455 27.016 72.87 8.43 49.94 8.43z"/>
    </symbol>
    <symbol id="gp" viewBox="0 0 18 18">
      <path d="M8.3 6.2c0-.9-.5-2.7-1.9-2.7-.6 0-1.2.4-1.2 1.5S5.7 7.6 7 7.6c0 .1 1.3 0 1.3-1.4zm-.6 4.4h-.2c-.3 0-1.1.1-1.6.3-.6.2-1.3.6-1.3 1.5 0 1 .9 2 2.7 2 1.4 0 2.2-.9 2.2-1.8-.1-.6-.6-1.1-1.8-2zM16.2 0H1.8C.8 0 0 .8 0 1.8v14.4c0 1 .8 1.8 1.8 1.8h14.4c1 0 1.8-.8 1.8-1.8V1.8c0-1-.8-1.8-1.8-1.8zM6.4 15.5c-2.5 0-3.7-1.4-3.7-2.7 0-.4.1-1.4 1.4-2.2.7-.5 1.6-.7 2.8-.8-.2-.2-.3-.4-.3-.9 0-.2 0-.3.1-.5h-.4c-1.8 0-2.9-1.3-2.9-2.7 0-1.5 1.2-3.2 3.7-3.2h3.8l-.3.3-.6.6-.1.1h-.6c.4.4.8 1 .8 2 0 1.3-.6 1.9-1.4 2.4-.2.1-.4.4-.4.7 0 .3.2.4.4.5.1.1.3.2.4.3.7.5 1.7 1.2 1.7 2.6 0 1.6-1.2 3.5-4.4 3.5zM15.3 9h-1.8v1.8h-.9V9h-1.8v-.9h1.8V6.3h.9v1.8h1.8V9z"/>
    </symbol>
    <symbol id="grid" viewBox="0 0 35 35">
      <path d="M0 0h16v16H0zm19 0h16v16H19zM0 19h16v16H0zm19 0h16v16H19z"/>
    </symbol>
    <symbol id="hamburger" viewBox="0 0 20 14">
      <path d="M0 14v-2h20v2H0zm0-8h20v2H0V6zm0-6h20v2H0V0z"/>
    </symbol>
    <symbol id="heart" viewBox="0 0 510 510">
      <path d="M255 489.6l-35.7-35.7C86.7 336.6 0 257.55 0 160.65 0 81.6 61.2 20.4 140.25 20.4c43.35 0 86.7 20.4 114.75 53.55C283.05 40.8 326.4 20.4 369.75 20.4 448.8 20.4 510 81.6 510 160.65c0 96.9-86.7 175.95-219.3 293.25L255 489.6z"/>
    </symbol>
    <symbol id="input" viewBox="0 0 41 41">
      <path d="M28 10.5H0v20h28v-20zm-4 16H4v-12h20v12zm17-20v-4H27v4h5v28h-5v4h14v-4h-5v-28h5z"/>
    </symbol>
    <symbol id="maginifer" viewBox="0 0 17 17">
      <path d="M17 15.803L15.803 17l-3.655-3.656C10.866 14.364 9.265 15 7.5 15A7.5 7.5 0 1 1 15 7.5c0 1.765-.635 3.366-1.655 4.647L17 15.803zM7.5 2a5.5 5.5 0 0 0 0 11 5.5 5.5 0 0 0 0-11z"/>
    </symbol>
    <symbol id="mr" viewBox="0 0 18 18">
      <path fill-rule="evenodd" clip-rule="evenodd" d="M8.8 6.5c-1.5 0-2.4 1.2-2.4 2.6 0 1.6 1 2.5 2.3 2.5 1.5 0 2.4-1.1 2.5-2.4v-.3c0-1.5-1.1-2.4-2.4-2.4zM16.2 0H1.8C.8 0 0 .8 0 1.8v14.4c0 1 .8 1.8 1.8 1.8h14.4c1 0 1.8-.8 1.8-1.8V1.8c0-1-.8-1.8-1.8-1.8zm-2.4 13.4c-1 .8-2.5 0-2.5-1.2v-.4c-.6.7-1.5 1.2-2.5 1.2-2 0-3.7-1.8-3.7-3.9 0-2.1 1.7-3.9 3.7-3.9 1 0 1.9.5 2.6 1.2 0-.3.2-.6.5-.6h.1c.5 0 .6.5.6.6v5.4c0 .4.3.5.6.3.8-.9 1.8-4.6-.5-6.7-2.2-2-5.1-1.7-6.7-.5C4.3 6 3.3 8.6 4.3 11.1c1.1 2.7 4.3 3.5 6.2 2.7 1-.4 1.4 1 .4 1.4-1.5.7-5.7.6-7.7-3C1.9 9.9 2 5.6 5.5 3.5c2.7-1.7 6.3-1.2 8.4 1.1 2.3 2.4 2.1 7-.1 8.8z"/>
    </symbol>
    <symbol id="ok" viewBox="0 0 18 18">
      <path fill-rule="evenodd" clip-rule="evenodd" d="M16.2 0H1.8C.8 0 0 .8 0 1.8v14.4c0 1 .8 1.8 1.8 1.8h14.4c1 0 1.8-.8 1.8-1.8V1.8c0-1-.8-1.8-1.8-1.8zM9 2.5c1.9 0 3.4 1.6 3.4 3.6 0 1.9-1.6 3.5-3.5 3.5C7.1 9.5 5.5 7.9 5.6 6c0-2 1.5-3.6 3.4-3.5zm3.9 8.4c-.4.4-.9.8-1.5 1-.5.2-1.1.3-1.7.4l.2.2 2.4 2.4c.3.3.3.6.2.9-.2.3-.5.6-.9.6-.2 0-.4-.1-.6-.3l-1.8-1.8c-.2-.2-.3-.1-.4 0-.6.6-1.2 1.2-1.8 1.9-.3.3-.6.3-.9.2-.3-.2-.6-.5-.5-.9 0-.2.1-.4.3-.6.8-.8 1.6-1.6 2.3-2.4l.2-.2c-1.1-.1-2-.4-2.8-1-.1-.1-.2-.2-.3-.2-.4-.3-.4-.8-.1-1.2.2-.4.6-.4 1.1-.2.1 0 .2.1.2.1 1.5 1.1 3.6 1.1 5.1 0 .2-.1.3-.2.5-.3.4-.1.7 0 .9.4.2.3.1.7-.1 1zM9 7.7c.9 0 1.7-.8 1.7-1.7 0-1-.7-1.7-1.7-1.7-.9 0-1.7.7-1.7 1.7 0 .9.8 1.7 1.7 1.7z"/>
    </symbol>
    <symbol id="rss" viewBox="0 0 16 16">
      <path d="M15.75 16h-3.11a.248.248 0 0 1-.245-.247C12.393 9.05 6.945 3.595.247 3.595A.247.247 0 0 1 0 3.35V.247C0 .11.11 0 .247 0c8.65 0 15.696 7.023 15.74 15.676l.013.077a.25.25 0 0 1-.25.247zM.248 5.226c5.77 0 10.475 4.682 10.518 10.45l.012.077c0 .134-.11.246-.248.246H7.505a.246.246 0 0 1-.246-.248c0-3.87-3.15-7.02-7.014-7.02A.248.248 0 0 1 0 8.488V5.474c0-.137.11-.248.247-.248zm2.125 6.028a2.375 2.375 0 0 1 2.372 2.374A2.376 2.376 0 0 1 2.372 16 2.376 2.376 0 0 1 0 13.628a2.375 2.375 0 0 1 2.372-2.374z"/>
    </symbol>
    <symbol id="text" viewBox="0 0 475.082 475.082">
      <path d="M473.37 433.11c-10.656-3.997-20.457-6.563-29.406-7.706-8.945-.767-15.516-2.95-19.7-6.567-2.476-1.53-5.81-6.95-9.997-16.28-7.806-15.603-13.99-29.785-18.555-42.536-7.427-20.18-13.617-35.787-18.565-46.827-10.845-25.31-19.982-47.678-27.4-67.092-4.002-10.465-15.798-38.73-35.406-84.795l-58.526-137.04-3.142-5.995H216.13l-79.94 206.703-67.665 175.874c-5.33 9.896-9.9 16.372-13.706 19.417-3.997 2.848-14.467 5.805-31.406 8.843-11.042 2.102-18.654 3.812-22.84 5.14L0 456.813h5.996c16.37 0 32.264-1.334 47.68-3.997l13.705-2.28c53.87 3.807 87.084 5.71 99.644 5.71.38-1.903.57-4.477.57-7.707 0-5.716-.093-11.23-.286-16.564-3.996-.568-7.85-1.143-11.56-1.71-3.712-.576-6.568-1.048-8.566-1.432-1.996-.373-3.283-.568-3.854-.568-14.657-2.094-24.46-5.14-29.407-9.134-3.236-2.28-4.854-6.374-4.854-12.277 0-3.806 2.19-11.796 6.567-23.982 14.277-39.775 24.172-65.855 29.692-78.223l128.483.568 26.27 65.096 13.41 32.542c1.144 3.24 1.71 6.283 1.71 9.138s-1.14 5.428-3.425 7.707c-2.285 1.906-8.753 4.094-19.417 6.564l-37.404 7.994c-.762 6.283-1.135 13.702-1.135 22.27l16.56-.574 57.103-3.138c10.656-.38 23.51-.575 38.547-.575 18.264 0 36.25.764 53.957 2.283 21.313 1.522 39.588 2.282 54.82 2.282.19-2.283.28-4.754.28-7.423 0-3.423-.57-8.843-1.71-16.27zM251.246 270.94c-2.666 0-7.662-.05-14.99-.143-7.326-.09-18.648-.233-33.972-.425-15.32-.195-29.93-.383-43.824-.574l48.534-128.477c7.424 15.04 16.178 35.12 26.264 60.244 11.425 27.79 20.18 50.727 26.273 68.81l-8.284.568z"/>
    </symbol>
    <symbol id="tw" viewBox="0 0 18 18">
      <path d="M16.2 0H1.8C.8 0 0 .8 0 1.8v14.4c0 1 .8 1.8 1.8 1.8h14.4c1 0 1.8-.8 1.8-1.8V1.8c0-1-.8-1.8-1.8-1.8zm-2.1 6.6c-.1 4.1-2.7 7-6.7 7.2-1.6.1-2.8-.4-3.9-1.1 1.2.2 2.7-.3 3.5-1-1.1-.1-1.8-.7-2.1-1.7.4.1.7 0 1 0C4.8 9.6 4.1 9 4 7.6c.3.2.6.3 1 .3-.9-.5-1.4-2.2-.8-3.3 1.2 1.3 2.6 2.3 4.9 2.5-.5-2.5 2.9-3.9 4.2-2.2.6-.1 1.1-.4 1.5-.5-.2.6-.5 1-1 1.3.4-.1.9-.2 1.3-.4-.1.5-.5.9-1 1.3z"/>
    </symbol>
    <symbol id="vk" viewBox="0 0 18 18">
      <path fill-rule="evenodd" clip-rule="evenodd" d="M16.2 0H1.8C.8 0 0 .8 0 1.8v14.4c0 1 .8 1.8 1.8 1.8h14.4c1 0 1.8-.8 1.8-1.8V1.8c0-1-.8-1.8-1.8-1.8zm-2.5 10.4c.4.4.9.8 1.3 1.3.2.2.3.4.5.7.2.3 0 .7-.3.7h-1.9c-.5 0-.9-.2-1.2-.5-.3-.3-.5-.6-.8-.8l-.3-.3c-.3-.2-.5-.1-.6.2-.2.3-.2.6-.2.9 0 .4-.2.6-.6.6-1 0-1.9-.1-2.7-.6-.7-.4-1.3-1-1.8-1.7C4 9.5 3.2 8 2.5 6.5c-.1-.3 0-.5.4-.5h1.9c.2 0 .3.1.4.4.4.8.8 1.6 1.3 2.3.1.2.3.4.5.5.2.2.4.1.5-.1.1-.2.1-.3.1-.5 0-.6.1-1.1 0-1.7-.1-.4-.3-.6-.7-.7-.1 0-.1-.1 0-.2.1-.2.3-.3.6-.3h2.2c.3.1.3.2.4.6v2.4c0 .1.1.5.3.6.2.1.3-.1.4-.2.5-.5.9-1.2 1.2-1.9.1-.3.3-.6.4-.9.1-.2.2-.3.5-.3h2.3c.3.1.4.2.3.5-.2.5-.5 1-.8 1.4-.3.5-.7.9-1.1 1.4-.3.5-.3.7.1 1.1z"/>
    </symbol></svg>